<?xml version="1.0" encoding="utf-8"?>
<!-- Generator: Adobe Illustrator 22.1.0, SVG Export Plug-In . SVG Version: 6.00 Build 0)  -->
<svg version="1.1" id="svg3228" xmlns="http://www.w3.org/2000/svg" xmlns:xlink="http://www.w3.org/1999/xlink" x="0px" y="0px"
	 viewBox="0 0 1408 704" style="enable-background:new 0 0 1408 704;" xml:space="preserve">
<style type="text/css">
	.st0{fill:#D7111B;}
	.st1{clip-path:url(#SVGID_2_);}
	.st2{fill:#FFF2B6;}
	.st3{fill:#E20010;fill-opacity:0;}
	.st4{fill:#FFEC00;}
	.st5{clip-path:url(#SVGID_5_);}
	.st6{clip-path:url(#SVGID_6_);}
	.st7{fill:none;stroke:#FFFFFF;stroke-width:1.3;}
	.st8{fill:none;stroke:#FFFFFF;stroke-width:1.34;}
	.st9{fill:none;stroke:#FFFFFF;stroke-width:1.38;}
	.st10{fill:#FFFFFF;}
	.st11{fill:#369D27;}
</style>
<title>Kedah pls</title>
<g id="g4409">
	<rect id="rect3438" class="st0" width="1408" height="704"/>
</g>
<g>
	<g>
		<defs>
			<rect id="SVGID_1_" x="96.9" y="14.8" width="360" height="361"/>
		</defs>
		<clipPath id="SVGID_2_">
			<use xlink:href="#SVGID_1_"  style="overflow:visible;"/>
		</clipPath>
		<g id="g4164" class="st1">
			<g>
				<path id="path3101" class="st2" d="M394,253.9c-4.4,4.9-9,5.6-9,5.6c5-5.3,14.7-26.3,14.7-26.3c2.6-5.4,15.8-12,15.8-12
					c21.4-11.4,15.1-35,15.1-35c-17.6,9.7-19.1,24.5-19.1,24.5c-1.5,12.3-9.6,15.9-9.6,15.9c2.9-4.8,5.7-24.5,5.7-24.5
					c2.1-5.8,11.2-15.4,11.2-15.4c3.3-3.2,7.8-8.5,7.8-8.5c10.4-11.9,0.7-32.4,0.7-32.4c-17.3,15.2-13.6,38.2-13.6,38.2
					c-0.1,5.2-5.4,12-5.4,12c2.2-12.5-1.1-34.1-1.1-34.1l1.4-4.6l2-5.4c2-5.4,3.3-6.3,3.3-6.3c15.3-16.1-1.6-37.1-1.6-37.1
					c-5.2,6.2-7.8,17.6-7.8,17.6c-1.8,9.2,3.3,22.4,3.3,22.4c0.8,3.4-1.5,8.7-1.5,8.7c-2.7-18.4-13.5-35.9-13.5-35.9
					c0-2,0.7-3.9,1.9-5.5c10.2-18-8.3-38.8-8.3-38.8c-7.8,24.9,3.4,36.8,3.4,36.8c3.6,4.3,2.3,6.7,2.3,6.7
					C381.5,102.6,369.7,94,369.7,94c-4.7-25-26.5-21.5-26.5-21.5c1.7,22.5,25,25,25,25c7.9,7,14.7,15.3,19.9,24.5
					c-1.8-0.7-3.4-1.7-4.7-3.1c-12.6-20.6-33.8-17.1-33.8-17.1c8.6,23.3,34.1,23.1,34.1,23.1c7.1,0.4,8.9,5.2,8.9,5.2
					c5.9,9.8,10,28.2,10,28.2c-1.6-1.6-3.8-4.2-3.8-4.2c-9.9-27-30.7-25.9-30.7-25.9c6.4,26.8,27.2,28.4,27.2,28.4
					c3.9,0.8,8,6.5,8,6.5c1.4,9.6,1.9,19.4,1.3,29.1c-0.4-1.4-1-2.7-1.7-4c-1.5-2.9-2.3-9.1-2.3-9.1c-3.6-18.9-21-22.1-21-22.1
					c-3.4,24.4,21.9,33.5,21.9,33.5c7.1,6.3-3,34.1-3,34.1c-0.2-1-0.6-4.8-0.6-4.8c2.2-29.2-20-33.3-20-33.3
					c-0.2,14,2.1,18.8,2.1,18.8c2.2,6.3,13.3,14.5,13.3,14.5c2.7,2.6,3.7,7.2,3.7,7.2c-1.7,11.7-18.1,34-18.1,34
					c-0.2-2.9,0.4-5.8,1.6-8.4c11.7-21.2-3-35.1-3-35.1c-14.2,18.9-1.8,33.3-1.8,33.3c1.9,3.6,1.1,12.8,1.1,12.8
					c-4.7,7-21,20.7-21,20.7l0.1-0.6c2-6.2,4-8.5,4-8.5c13.6-16,0.3-35.1,0.3-35.1c-12.6,14.2-7.2,31.5-7.2,31.5
					c3.5,8.2-0.3,14-0.3,14c-6.3,7.4-25.7,15.8-25.7,15.8c2.3-2.7,4.7-5.3,7.3-7.7c14.6-11.7,7.2-32.6,7.2-32.6
					c-19.1,10.8-14.3,33-14.3,33c-0.6,8.1-6.3,10.1-6.3,10.1c-8.3,3.7-20.3,6.2-20.3,6.2c0.7-1.3,1.9-2.4,3.4-3
					c20.7-11.7,14.6-29.9,14.6-29.9c-19.6,7.6-19.1,29.6-19.1,29.6c-0.2,4.5-4,4.7-4,4.7l-6.6,0.9c8.2-5.1,7.5-10.5,7.5-10.5
					c-0.9-13.4-18.2-9.1-18.2-9.1s-17.3-4.3-18.2,9.1c0,0-0.7,5.4,7.5,10.5l-6.6-0.9c0,0-3.8-0.2-4-4.7c0,0,0.5-22-19.1-29.6
					c0,0-6.1,18.1,14.6,29.9c1.4,0.6,2.6,1.6,3.4,3c0,0-12-2.5-20.3-6.2c0,0-5.7-2-6.3-10.1c0,0,4.7-22.3-14.3-33
					c0,0-7.4,21,7.2,32.6c2.6,2.4,5.1,5,7.4,7.7c0,0-19.5-8.4-25.7-15.8c0,0-3.8-5.8-0.3-14c0,0,5.4-17.3-7.2-31.5
					c0,0-13.3,19.1,0.3,35.1c0,0,1.9,2.2,4,8.5l0.1,0.6c0,0-16.4-13.7-21-20.7c0,0-0.8-9.2,1.1-12.8c0,0,12.4-14.5-1.8-33.3
					c0,0-14.6,13.9-2.9,35.1c1.2,2.6,1.8,5.5,1.6,8.4c0,0-16.4-22.3-18.1-34c0,0,0.9-4.6,3.7-7.2c0,0,11.1-8.1,13.3-14.5
					c0,0,2.3-4.8,2.1-18.8c0,0-22.2,4.1-20,33.3c0,0-0.4,3.8-0.6,4.8c0,0-10.1-27.8-2.9-34.1c0,0,25.3-9.1,21.9-33.5
					c0,0-17.4,3.3-21,22.1c0,0-0.8,6.2-2.3,9.1c-0.7,1.3-1.3,2.6-1.7,4c-0.5-9.7-0.1-19.4,1.3-29.1c0,0,4.2-5.7,8-6.5
					c0,0,20.8-1.6,27.2-28.4c0,0-20.8-1-30.7,26c0,0-2.1,2.6-3.8,4.2c0,0,4.1-18.4,10-28.2c0,0,1.9-4.8,8.9-5.2
					c0,0,25.6,0.2,34.1-23.1c0,0-21.2-3.5-33.9,17.1c-1.3,1.3-2.9,2.4-4.7,3.1c5.3-9.2,12-17.5,19.9-24.5c0,0,23.3-2.4,25-25
					c0,0-21.9-3.5-26.5,21.5c0,0-11.8,8.7-22.3,26.6c0,0-1.2-2.4,2.3-6.7c0,0,11.2-11.9,3.4-36.8c0,0-18.6,20.8-8.3,38.8
					c1.2,1.6,1.9,3.5,1.9,5.5c0,0-10.8,17.4-13.6,35.8c0,0-2.3-5.3-1.5-8.7c0,0,5.1-13.3,3.3-22.4c0,0-2.6-11.4-7.8-17.6
					c0,0-16.9,21-1.6,37.1c0,0,1.2,0.9,3.3,6.3l2,5.4l1.5,4.6c0,0-3.4,21.6-1.1,34.1c0,0-5.3-6.8-5.4-12c0,0,3.7-23-13.6-38.2
					c0,0-9.7,20.5,0.7,32.4c0,0,4.6,5.3,7.8,8.5c0,0,9,9.6,11.2,15.4c0,0,2.8,19.7,5.7,24.5c0,0-8-3.6-9.6-15.9
					c0,0-1.5-14.7-19.1-24.5c0,0-6.3,23.5,15.1,35c0,0,13.1,6.6,15.8,12c0,0,9.8,21,14.7,26.3c0,0-4.7-0.7-9-5.6
					c0,0-10.4-25.7-31-27.7c0,0-0.4,25.9,28.1,32.7c0,0,9.3,0.8,13.7,3.2c0,0,11.1,14.2,20.6,21.9c0,0-10.7-0.1-13.2-5.4
					c0,0-8-17.1-34.1-16.5c0,0,4.2,23.1,34.3,23.2c0,0,13.4-0.7,16.8,1.6c0,0,16.7,12.7,26.9,16.6c0,0-6.4,0.8-11-1.1
					c0,0-24.3-17-42.4-5c0,0,9,18.5,42.4,10.1c0,0,13.9-2.4,16.6-1.3c0,0,19.8,7.6,26,8.6c0,0-6.4,4-16.8-0.5c0,0-13.7-7.9-29.5,4.8
					c0,0,12.9,16.4,38.5,2.8c0,0,10.2-6.4,14.9-5.6l7.2,1.2c0,0-13.5,13.9-26,21.1c0,0-2.7,1.1-0.4,2.1c0,0,10.2,4.7,18.8,5.1
					c0,0,12.3-12.4,15-26.8c3.6,15.7,15.8,26.7,15.8,26.7c8.6-0.4,18.6-5.2,18.6-5.2c2.3-1-0.4-2.1-0.4-2.1
					c-12.5-7.2-26.5-20.9-26.5-20.9l7.2-1.2c4.8-0.8,14.9,5.6,14.9,5.6c25.6,13.7,38.5-2.8,38.5-2.8c-15.8-12.6-29.5-4.8-29.5-4.8
					c-10.4,4.5-16.8,0.5-16.8,0.5c6.2-0.9,26-8.6,26-8.6c2.6-1,16.6,1.3,16.6,1.3c33.3,8.4,42.4-10.1,42.4-10.1
					c-18.1-12-42.4,5-42.4,5c-4.6,1.9-11,1.1-11,1.1c10.3-3.9,26.9-16.6,26.9-16.6c3.4-2.4,16.8-1.6,16.8-1.6
					c30.1-0.1,34.3-23.2,34.3-23.2c-26-0.6-34,16.5-34,16.5c-2.5,5.3-13.2,5.4-13.2,5.4c9.5-7.7,20.6-21.9,20.6-21.9
					c4.5-2.4,13.7-3.2,13.7-3.2c28.6-6.9,28.2-32.8,28.2-32.8C404.3,228.2,394,253.9,394,253.9L394,253.9z M265.4,305.2
					c0,0-1.3-5.7,0.5-5.4c0,0,1.2-0.2,1.2,2.3c-0.1,1.9,0.2,3.7,1,5.4c0,0,1.9,2.8,2,3.9C270.1,311.3,267.5,311.4,265.4,305.2z
					 M278.3,318.8c-2.1,0-3.8-1.1-3.8-2.5s1.7-2.5,3.8-2.5s3.8,1.1,3.8,2.5S280.4,318.8,278.3,318.8L278.3,318.8z M278.3,310.7
					c-2.3,0-4.2-0.9-4.2-2s1.9-2,4.2-2s4.2,0.9,4.2,2S280.6,310.7,278.3,310.7L278.3,310.7z M278.3,301.2c-2.8,0-5-0.9-5-2
					s2.3-2,5-2s5,0.9,5,2S281.1,301.2,278.3,301.2L278.3,301.2z M286.4,311.3c0.1-1.1,2-3.9,2-3.9c0.8-1.7,1.1-3.5,1-5.4
					c0-2.5,1.2-2.3,1.2-2.3c1.8-0.3,0.5,5.4,0.5,5.4C289.1,311.4,286.4,311.3,286.4,311.3z"/>
				<path id="path3103" class="st3" d="M456.9,195.3c0,99.7-80.6,180.5-180,180.5s-180-80.8-180-180.5s80.6-180.5,180-180.5
					S456.9,95.6,456.9,195.3z"/>
				<path id="path3105" class="st4" d="M394,253.9c-4.4,4.9-9,5.6-9,5.6c5-5.3,14.7-26.3,14.7-26.3c2.6-5.4,15.8-12,15.8-12
					c21.4-11.4,15.1-35,15.1-35c-17.6,9.7-19.1,24.5-19.1,24.5c-1.5,12.3-9.6,15.9-9.6,15.9c2.9-4.8,5.7-24.5,5.7-24.5
					c2.1-5.8,11.2-15.4,11.2-15.4c3.3-3.2,7.8-8.5,7.8-8.5c10.4-11.9,0.7-32.4,0.7-32.4c-17.3,15.2-13.6,38.2-13.6,38.2
					c-0.1,5.2-5.4,12-5.4,12c2.2-12.5-1.1-34.1-1.1-34.1l1.4-4.6l2-5.4c2-5.4,3.3-6.3,3.3-6.3c15.3-16.1-1.6-37.1-1.6-37.1
					c-5.2,6.2-7.8,17.6-7.8,17.6c-1.8,9.2,3.3,22.4,3.3,22.4c0.8,3.4-1.5,8.7-1.5,8.7c-2.7-18.4-13.5-35.9-13.5-35.9
					c0-2,0.7-3.9,1.9-5.5c10.2-18-8.3-38.8-8.3-38.8c-7.8,24.9,3.4,36.8,3.4,36.8c3.6,4.3,2.3,6.7,2.3,6.7
					C381.5,102.6,369.7,94,369.7,94c-4.7-25-26.5-21.5-26.5-21.5c1.7,22.5,25,25,25,25c7.9,7,14.7,15.3,19.9,24.5
					c-1.8-0.7-3.4-1.7-4.7-3.1c-12.6-20.6-33.8-17.1-33.8-17.1c8.6,23.3,34.1,23.1,34.1,23.1c7.1,0.4,8.9,5.2,8.9,5.2
					c5.9,9.8,10,28.2,10,28.2c-1.6-1.6-3.8-4.2-3.8-4.2c-9.9-27-30.7-25.9-30.7-25.9c6.4,26.8,27.2,28.4,27.2,28.4
					c3.9,0.8,8,6.5,8,6.5c1.4,9.6,1.9,19.4,1.3,29.1c-0.4-1.4-1-2.7-1.7-4c-1.5-2.9-2.3-9.1-2.3-9.1c-3.6-18.9-21-22.1-21-22.1
					c-3.4,24.4,21.9,33.5,21.9,33.5c7.1,6.3-3,34.1-3,34.1c-0.2-1-0.6-4.8-0.6-4.8c2.2-29.2-20-33.3-20-33.3
					c-0.2,14,2.1,18.8,2.1,18.8c2.2,6.3,13.3,14.5,13.3,14.5c2.7,2.6,3.7,7.2,3.7,7.2c-1.7,11.7-18.1,34-18.1,34
					c-0.2-2.9,0.4-5.8,1.6-8.4c11.7-21.2-3-35.1-3-35.1c-14.2,18.9-1.8,33.3-1.8,33.3c1.9,3.6,1.1,12.8,1.1,12.8
					c-4.7,7-21,20.7-21,20.7l0.1-0.6c2-6.2,4-8.5,4-8.5c13.6-16,0.3-35.1,0.3-35.1c-12.6,14.2-7.2,31.5-7.2,31.5
					c3.5,8.2-0.3,14-0.3,14c-6.3,7.4-25.7,15.8-25.7,15.8c2.3-2.7,4.7-5.3,7.3-7.7c14.6-11.7,7.2-32.6,7.2-32.6
					c-19.1,10.8-14.3,33-14.3,33c-0.6,8.1-6.3,10.1-6.3,10.1c-8.3,3.7-20.3,6.2-20.3,6.2c0.7-1.3,1.9-2.4,3.4-3
					c20.7-11.7,14.6-29.9,14.6-29.9c-19.6,7.6-19.1,29.6-19.1,29.6c-0.2,4.5-4,4.7-4,4.7l-6.6,0.9c8.2-5.1,7.5-10.5,7.5-10.5
					c-0.9-13.4-18.2-9.1-18.2-9.1s-17.3-4.3-18.2,9.1c0,0-0.7,5.4,7.5,10.5l-6.6-0.9c0,0-3.8-0.2-4-4.7c0,0,0.5-22-19.1-29.6
					c0,0-6.1,18.1,14.6,29.9c1.4,0.6,2.6,1.6,3.4,3c0,0-12-2.5-20.3-6.2c0,0-5.7-2-6.3-10.1c0,0,4.7-22.3-14.3-33
					c0,0-7.4,21,7.2,32.6c2.6,2.4,5.1,5,7.4,7.7c0,0-19.5-8.4-25.7-15.8c0,0-3.8-5.8-0.3-14c0,0,5.4-17.3-7.2-31.5
					c0,0-13.3,19.1,0.3,35.1c0,0,1.9,2.2,4,8.5l0.1,0.6c0,0-16.4-13.7-21-20.7c0,0-0.8-9.2,1.1-12.8c0,0,12.4-14.5-1.8-33.3
					c0,0-14.6,13.9-2.9,35.1c1.2,2.6,1.8,5.5,1.6,8.4c0,0-16.4-22.3-18.1-34c0,0,0.9-4.6,3.7-7.2c0,0,11.1-8.1,13.3-14.5
					c0,0,2.3-4.8,2.1-18.8c0,0-22.2,4.1-20,33.3c0,0-0.4,3.8-0.6,4.8c0,0-10.1-27.8-2.9-34.1c0,0,25.3-9.1,21.9-33.5
					c0,0-17.4,3.3-21,22.1c0,0-0.8,6.2-2.3,9.1c-0.7,1.3-1.3,2.6-1.7,4c-0.5-9.7-0.1-19.4,1.3-29.1c0,0,4.2-5.7,8-6.5
					c0,0,20.8-1.6,27.2-28.4c0,0-20.8-1-30.7,26c0,0-2.1,2.6-3.8,4.2c0,0,4.1-18.4,10-28.2c0,0,1.9-4.8,8.9-5.2
					c0,0,25.6,0.2,34.1-23.1c0,0-21.2-3.5-33.9,17.1c-1.3,1.3-2.9,2.4-4.7,3.1c5.3-9.2,12-17.5,19.9-24.5c0,0,23.3-2.4,25-25
					c0,0-21.9-3.5-26.5,21.5c0,0-11.8,8.7-22.3,26.6c0,0-1.2-2.4,2.3-6.7c0,0,11.2-11.9,3.4-36.8c0,0-18.6,20.8-8.3,38.8
					c1.2,1.6,1.9,3.5,1.9,5.5c0,0-10.8,17.4-13.6,35.8c0,0-2.3-5.3-1.5-8.7c0,0,5.1-13.3,3.3-22.4c0,0-2.6-11.4-7.8-17.6
					c0,0-16.9,21-1.6,37.1c0,0,1.2,0.9,3.3,6.3l2,5.4l1.5,4.6c0,0-3.4,21.6-1.1,34.1c0,0-5.3-6.8-5.4-12c0,0,3.7-23-13.6-38.2
					c0,0-9.7,20.5,0.7,32.4c0,0,4.6,5.3,7.8,8.5c0,0,9,9.6,11.2,15.4c0,0,2.8,19.7,5.7,24.5c0,0-8-3.6-9.6-15.9
					c0,0-1.5-14.7-19.1-24.5c0,0-6.3,23.5,15.1,35c0,0,13.1,6.6,15.8,12c0,0,9.8,21,14.7,26.3c0,0-4.7-0.7-9-5.6
					c0,0-10.4-25.7-31-27.7c0,0-0.4,25.9,28.1,32.7c0,0,9.3,0.8,13.7,3.2c0,0,11.1,14.2,20.6,21.9c0,0-10.7-0.1-13.2-5.4
					c0,0-8-17.1-34.1-16.5c0,0,4.2,23.1,34.3,23.2c0,0,13.4-0.7,16.8,1.6c0,0,16.7,12.7,26.9,16.6c0,0-6.4,0.8-11-1.1
					c0,0-24.3-17-42.4-5c0,0,9,18.5,42.4,10.1c0,0,13.9-2.4,16.6-1.3c0,0,19.8,7.6,26,8.6c0,0-6.4,4-16.8-0.5c0,0-13.7-7.9-29.5,4.8
					c0,0,12.9,16.4,38.5,2.8c0,0,10.2-6.4,14.9-5.6l7.2,1.2c0,0-13.5,13.9-26,21.1c0,0-2.7,1.1-0.4,2.1c0,0,10.2,4.7,18.8,5.1
					c0,0,12.3-12.4,15-26.8c3.6,15.7,15.8,26.7,15.8,26.7c8.6-0.4,18.6-5.2,18.6-5.2c2.3-1-0.4-2.1-0.4-2.1
					c-12.5-7.2-26.5-20.9-26.5-20.9l7.2-1.2c4.8-0.8,14.9,5.6,14.9,5.6c25.6,13.7,38.5-2.8,38.5-2.8c-15.8-12.6-29.5-4.8-29.5-4.8
					c-10.4,4.5-16.8,0.5-16.8,0.5c6.2-0.9,26-8.6,26-8.6c2.6-1,16.6,1.3,16.6,1.3c33.3,8.4,42.4-10.1,42.4-10.1
					c-18.1-12-42.4,5-42.4,5c-4.6,1.9-11,1.1-11,1.1c10.3-3.9,26.9-16.6,26.9-16.6c3.4-2.4,16.8-1.6,16.8-1.6
					c30.1-0.1,34.3-23.2,34.3-23.2c-26-0.6-34,16.5-34,16.5c-2.5,5.3-13.2,5.4-13.2,5.4c9.5-7.7,20.6-21.9,20.6-21.9
					c4.5-2.4,13.7-3.2,13.7-3.2c28.6-6.9,28.2-32.8,28.2-32.8C404.3,228.2,394,253.9,394,253.9L394,253.9z M265.4,305.2
					c0,0-1.3-5.7,0.5-5.4c0,0,1.2-0.2,1.2,2.3c-0.1,1.9,0.2,3.7,1,5.4c0,0,1.9,2.8,2,3.9C270.1,311.3,267.5,311.4,265.4,305.2z
					 M278.3,318.8c-2.1,0-3.8-1.1-3.8-2.5s1.7-2.5,3.8-2.5s3.8,1.1,3.8,2.5S280.4,318.8,278.3,318.8L278.3,318.8z M278.3,310.7
					c-2.3,0-4.2-0.9-4.2-2s1.9-2,4.2-2s4.2,0.9,4.2,2S280.6,310.7,278.3,310.7L278.3,310.7z M278.3,301.2c-2.8,0-5-0.9-5-2
					s2.3-2,5-2s5,0.9,5,2S281.1,301.2,278.3,301.2L278.3,301.2z M286.4,311.3c0.1-1.1,2-3.9,2-3.9c0.8-1.7,1.1-3.5,1-5.4
					c0-2.5,1.2-2.3,1.2-2.3c1.8-0.3,0.5,5.4,0.5,5.4C289.1,311.4,286.4,311.3,286.4,311.3z"/>
				<path id="path3107" class="st4" d="M278.4,240.6C201.5,197.4,218,84.3,218,84.3c32.8,15.8,59.8,0,59.8,0s28.1,16.1,59.9-0.6
					C337.7,83.7,355.7,196.5,278.4,240.6z"/>
				<g id="_1">
					<g id="Group3">
						<defs>
							<path id="SVGID_3_" d="M278.4,240.6C201.5,197.4,218,84.3,218,84.3c32.8,15.8,59.8,0,59.8,0s28.1,16.1,59.9-0.6
								C337.7,83.7,355.7,196.5,278.4,240.6z"/>
						</defs>
						<defs>
							<path id="SVGID_4_" d="M278.4,240.6C201.5,197.4,218,84.3,218,84.3c32.8,15.8,59.8,0,59.8,0s28.1,16.1,59.9-0.6
								C337.7,83.7,355.7,196.5,278.4,240.6z"/>
						</defs>
						<clipPath id="SVGID_5_">
							<use xlink:href="#SVGID_3_"  style="overflow:visible;"/>
						</clipPath>
						<clipPath id="SVGID_6_" class="st5">
							<use xlink:href="#SVGID_4_"  style="overflow:visible;"/>
						</clipPath>
						<g class="st6">
							<g id="Group1">
								<path id="path3110" class="st7" d="M222.9,85.9v80.4"/>
								<path id="path3112" class="st7" d="M230.3,88.6v96.9"/>
								<path id="path3114" class="st7" d="M237.6,90.2v109.4"/>
								<path id="path3116" class="st7" d="M245,91v120.5"/>
								<path id="path3118" class="st7" d="M252.4,91v130"/>
								<path id="path3120" class="st8" d="M259.7,90.2v138.4"/>
								<path id="path3122" class="st9" d="M267.4,87.4v147.7"/>
								<path id="path3124" class="st7" d="M274.1,85.2v154.1"/>
								<path id="path3126" class="st8" d="M332.1,85.9V171"/>
								<path id="path3128" class="st7" d="M324.7,88.6v100.5"/>
								<path id="path3130" class="st7" d="M317.4,90.2v113.6"/>
								<path id="path3132" class="st7" d="M310.3,91.2v123.2"/>
								<path id="path3134" class="st7" d="M303,91v130"/>
								<path id="path3136" class="st8" d="M295.5,90v138.4"/>
								<path id="path3138" class="st9" d="M288.4,87.4v147.7"/>
							</g>
							<g id="Group2">
								<path id="path3141" class="st7" d="M222.9,85.9v80.4"/>
								<path id="path3143" class="st7" d="M230.3,88.6v96.9"/>
								<path id="path3145" class="st7" d="M237.6,90.2v109.4"/>
								<path id="path3147" class="st7" d="M245,91v120.5"/>
								<path id="path3149" class="st7" d="M252.4,91v130"/>
								<path id="path3151" class="st8" d="M259.7,90.2v138.4"/>
								<path id="path3153" class="st9" d="M267.4,87.4v147.7"/>
								<path id="path3155" class="st7" d="M274.1,85.2v154.1"/>
								<path id="path3157" class="st8" d="M332.1,85.9V171"/>
								<path id="path3159" class="st7" d="M324.7,88.6v100.5"/>
								<path id="path3161" class="st7" d="M317.4,90.2v113.6"/>
								<path id="path3163" class="st7" d="M310.3,91.2v123.2"/>
								<path id="path3165" class="st7" d="M303,91v130"/>
								<path id="path3167" class="st8" d="M295.5,90v138.4"/>
								<path id="path3169" class="st9" d="M288.4,87.4v147.7"/>
								<path id="path3171" class="st7" d="M281.8,85.2v154.1"/>
							</g>
							<path id="path3173" class="st10" d="M225,170.2l114.4-62.8c0,0,0.6,18.8-1.7,33.3l-99.4,60.2
								C238.3,200.9,231.2,190.5,225,170.2z"/>
							<path id="path3175" class="st11" d="M335.5,172.3c6.3,31.4-14,62-45.4,68.3c-31.4,6.3-62-14-68.3-45.4
								c-0.8-3.8-1.2-7.8-1.1-11.7c0-4.4-0.2-8.6,0.7-12.7c-8.4,11.4-12.8,25.5-12.8,40.7c0,38.1,31.2,68.8,69.6,69
								c39.3,0.1,69.6-30.9,69.6-69C347.9,197.5,343.6,183.8,335.5,172.3z"/>
							<path id="path3177" class="st4" d="M317.5,133.3c-0.3,1.5-0.4,2.3-0.4,2.3c-0.7-0.1-1.9-0.5-1.9-0.5l0.2-2.2
								C316.6,133.1,317.5,133.3,317.5,133.3z M306.8,127.1l0,2l2,0.2v-2.2L306.8,127.1z M274.5,154.7l0.3-2.2l2.2,0.1l0.3-3.1
								l-3-0.2l-0.2,2.4l-2.5-0.1l0.1,2.9L274.5,154.7z M292.5,159.5l2.1,1.3l0.6-2.2l1.7,0.9l0.6-2.4l-2.1-1l-0.5,2l-1.6-0.5
								L292.5,159.5z M256.1,172.1c-6.9,14.2,5.3,12.1,5.3,12.1c7.9-1.7,7.5-7.1,7.5-7.1c-8.3,6.6-11.3,3.3-11.3,3.3
								c-4.9-4.7,4-12,4-12l-1.6-2.6c-0.8,2.5-4.7,3.6-4.7,3.6c-4.2,0.9-5,2.2-5,2.2c-2.4,3,1.9,4.5,1.9,4.5
								C250.2,172.6,256.1,172.1,256.1,172.1L256.1,172.1z M279.4,167.1c-6.1,3.8-9.1,2-9.1,2c0.1,3.7-4.8,4.7-4.8,4.7
								c-1.6,0.3-2.2-2.3-2.2-2.3c9.6-1.6,2.3-6.9,2.3-6.9l1-2.1c0,0,0.2,0.3,3.3,3.4c3.5,3.6,11.2-3.6,11.2-3.6
								c2.5-2.6,0.5-3,0.5-3c-3,5.3-5.6,3.1-5.6,3.1c-3.2-2.6,0-5.9,0-5.9c3.6-3.4,7.7,1.5,7.7,1.5
								C287,162.4,279.4,167.1,279.4,167.1L279.4,167.1z M279.4,158.1c-0.6-0.5-1.5-0.4-2,0.2c0,0-1.1,1.5,0.3,1.7
								C277.7,159.9,279.1,159.9,279.4,158.1L279.4,158.1z M298,143.6c0.4-1,0-2.1-1-2.6c-0.2-0.1-0.5-0.2-0.7-0.2
								c0,0-2.9-0.6-4.3,3.1c0,0-2.4,5.7,1.5,5.5c0,0,5.5-0.8,2.2,1.9c0,0-9.4,6.9-10.8-1.3c0,0-2,11.6,9,5.7c0,0,5.7-2.4,3.7-7.3
								c0,0-0.6-1.9-2.2-1.7c0,0-3.4,0.8-2.1-2.3c0.2-0.8,1-1.4,1.8-1.2c0.4,0.1,0.7,0.3,0.9,0.6c0.4,0.5,1.1,0.6,1.6,0.3
								C297.9,144.2,298,143.9,298,143.6L298,143.6z M322.4,135l-1,2.6c0,0,2.2,1.8,1,2.6c0,0-1.7,1.1-5.7-0.3c-2.7-1-5.4-2-8.2-2.7
								c0,0-2.1-0.6-0.7-1.6l7.8-6.5c0,0,0.2-2.8,0.3-3.4c0,0-10.5,7.5-10.3,9.3l0.1,0.8l0.3,1.9c0,0,0.4,1.4,2.9,2.2l2.5,0.8
								c0,0,2,0.5,1,1.1c-4.4,1.6-7.4,5.8-7.5,10.5c-0.1,0.6-0.6,1.1-1.2,1.1c0,0-1.8,0.4-1.8-3c0,0,0-0.7-0.2-0.6
								c0,0-1.8,2.8,0.1,5.2c0,0,2.6,3.1,5-0.8c0.5-1.2,0.7-2.5,0.7-3.8c0,0,0-3.9,4.4-6.6c0.8-0.5,1.5-1.1,2-1.9c0,0,0.3-0.3,1.6,0
								c0,0,5.5,1.6,7.5-0.1C323.2,141.8,325.7,140,322.4,135z M315.5,132.9l-0.2,2.2c0,0,1.2,0.4,1.9,0.5c0,0,0.1-0.9,0.4-2.3
								C317.5,133.3,316.6,133.1,315.5,132.9L315.5,132.9z M306.8,127.1l0,2l2,0.2v-2.2L306.8,127.1z M274.5,154.7l0.3-2.2l2.2,0.1
								l0.3-3.1l-3-0.2l-0.2,2.4l-2.5-0.1l0.1,2.9L274.5,154.7z M292.5,159.5l2.1,1.3l0.6-2.2l1.7,0.9l0.6-2.4l-2.1-1l-0.5,2
								l-1.6-0.5L292.5,159.5z M256.1,172.1c-6.9,14.2,5.3,12.1,5.3,12.1c7.9-1.7,7.5-7.1,7.5-7.1c-8.3,6.6-11.3,3.3-11.3,3.3
								c-4.9-4.7,4-12,4-12l-1.6-2.6c-0.8,2.5-4.7,3.6-4.7,3.6c-4.2,0.9-5,2.2-5,2.2c-2.4,3,1.9,4.5,1.9,4.5
								C250.2,172.6,256.1,172.1,256.1,172.1L256.1,172.1z M279.4,167.1c-6.1,3.8-9.1,2-9.1,2c0.1,3.7-4.8,4.7-4.8,4.7
								c-1.6,0.3-2.2-2.3-2.2-2.3c9.6-1.6,2.3-6.9,2.3-6.9l1-2.1c0,0,0.2,0.3,3.3,3.4c3.5,3.6,11.2-3.6,11.2-3.6
								c2.5-2.6,0.5-3,0.5-3c-3,5.3-5.6,3.1-5.6,3.1c-3.2-2.6,0-5.9,0-5.9c3.6-3.4,7.7,1.5,7.7,1.5
								C287,162.4,279.4,167.1,279.4,167.1L279.4,167.1z M279.4,158.1c-0.6-0.5-1.5-0.4-2,0.2c0,0-1.1,1.5,0.3,1.7
								C277.7,159.9,279.1,159.9,279.4,158.1L279.4,158.1z M298,143.6c0.4-1,0-2.1-1-2.6c-0.2-0.1-0.5-0.2-0.7-0.2
								c0,0-2.9-0.6-4.3,3.1c0,0-2.4,5.7,1.5,5.5c0,0,5.5-0.8,2.2,1.9c0,0-9.4,6.9-10.8-1.3c0,0-2,11.6,9,5.7c0,0,5.7-2.4,3.7-7.3
								c0,0-0.6-1.9-2.2-1.7c0,0-3.4,0.8-2.1-2.3c0.2-0.8,1-1.4,1.8-1.2c0.4,0.1,0.7,0.3,0.9,0.6c0.4,0.5,1.1,0.6,1.6,0.3
								C297.9,144.2,298,143.9,298,143.6L298,143.6z M322.4,135l-1,2.6c0,0,2.2,1.8,1,2.6c0,0-1.7,1.1-5.7-0.3c-2.7-1-5.4-2-8.2-2.7
								c0,0-2.1-0.6-0.7-1.6l7.8-6.5c0,0,0.2-2.8,0.3-3.4c0,0-10.5,7.5-10.3,9.3l0.1,0.8l0.3,1.9c0,0,0.4,1.4,2.9,2.2l2.5,0.8
								c0,0,2,0.5,1,1.1c-4.4,1.6-7.4,5.8-7.5,10.5c-0.1,0.6-0.6,1.1-1.2,1.1c0,0-1.8,0.4-1.8-3c0,0,0-0.7-0.2-0.6
								c0,0-1.8,2.8,0.1,5.2c0,0,2.6,3.1,5-0.8c0.5-1.2,0.7-2.5,0.7-3.8c0,0,0-3.9,4.4-6.6c0.8-0.5,1.5-1.1,2-1.9c0,0,0.3-0.3,1.6,0
								c0,0,5.5,1.6,7.5-0.1C323.2,141.8,325.7,140,322.4,135z"/>
						</g>
					</g>
				</g>
			</g>
		</g>
	</g>
</g>
</svg>
