<?xml version="1.0" encoding="UTF-8" standalone="no"?>
<!-- Created with Inkscape (http://www.inkscape.org/) -->

<svg
   xmlns:dc="http://purl.org/dc/elements/1.1/"
   xmlns:cc="http://creativecommons.org/ns#"
   xmlns:rdf="http://www.w3.org/1999/02/22-rdf-syntax-ns#"
   xmlns:svg="http://www.w3.org/2000/svg"
   xmlns="http://www.w3.org/2000/svg"
   xmlns:xlink="http://www.w3.org/1999/xlink"
   xmlns:sodipodi="http://sodipodi.sourceforge.net/DTD/sodipodi-0.dtd"
   xmlns:inkscape="http://www.inkscape.org/namespaces/inkscape"
   id="svg2477"
   sodipodi:version="0.32"
   inkscape:version="0.92.2 (5c3e80d, 2017-08-06)"
   width="1024"
   height="512.00006"
   version="1.0"
   sodipodi:docname="Flag_of_Penang_(Malaysia).svg"
   inkscape:output_extension="org.inkscape.output.svg.inkscape">
  <metadata
     id="metadata2482">
    <rdf:RDF>
      <cc:Work
         rdf:about="">
        <dc:format>image/svg+xml</dc:format>
        <dc:type
           rdf:resource="http://purl.org/dc/dcmitype/StillImage" />
      </cc:Work>
    </rdf:RDF>
  </metadata>
  <defs
     id="defs2480">
    <linearGradient
       inkscape:collect="always"
       id="linearGradient6115">
      <stop
         style="stop-color:#005718;stop-opacity:1"
         offset="0"
         id="stop6117" />
      <stop
         style="stop-color:#ffff00;stop-opacity:1"
         offset="1"
         id="stop6119" />
    </linearGradient>
    <linearGradient
       inkscape:collect="always"
       id="linearGradient6087">
      <stop
         style="stop-color:#165016;stop-opacity:1"
         offset="0"
         id="stop6089" />
      <stop
         style="stop-color:#ffff00;stop-opacity:1"
         offset="1"
         id="stop6091" />
    </linearGradient>
    <linearGradient
       inkscape:collect="always"
       id="linearGradient6067">
      <stop
         style="stop-color:#008000;stop-opacity:1;"
         offset="0"
         id="stop6069" />
      <stop
         style="stop-color:#ffff00;stop-opacity:1"
         offset="1"
         id="stop6071" />
    </linearGradient>
    <linearGradient
       id="linearGradient5718">
      <stop
         style="stop-color:#b5211a;stop-opacity:1;"
         offset="0"
         id="stop5720" />
      <stop
         style="stop-color:#2b0000;stop-opacity:1"
         offset="1"
         id="stop5722" />
    </linearGradient>
    <linearGradient
       id="linearGradient4233">
      <stop
         style="stop-color:#a73330;stop-opacity:1;"
         offset="0"
         id="stop4235" />
      <stop
         style="stop-color:#a73330;stop-opacity:0;"
         offset="1"
         id="stop4237" />
    </linearGradient>
    <linearGradient
       id="linearGradient4227">
      <stop
         id="stop4229"
         offset="0"
         style="stop-color:#a73330;stop-opacity:1;" />
      <stop
         id="stop4231"
         offset="1"
         style="stop-color:#a73330;stop-opacity:0;" />
    </linearGradient>
    <linearGradient
       id="linearGradient4221">
      <stop
         style="stop-color:#a73330;stop-opacity:1;"
         offset="0"
         id="stop4223" />
      <stop
         style="stop-color:#a73330;stop-opacity:0;"
         offset="1"
         id="stop4225" />
    </linearGradient>
    <linearGradient
       id="linearGradient4215">
      <stop
         id="stop4217"
         offset="0"
         style="stop-color:#a73330;stop-opacity:1;" />
      <stop
         id="stop4219"
         offset="1"
         style="stop-color:#a73330;stop-opacity:0;" />
    </linearGradient>
    <linearGradient
       id="linearGradient4069">
      <stop
         style="stop-color:#a73330;stop-opacity:1;"
         offset="0"
         id="stop4071" />
      <stop
         style="stop-color:#a73330;stop-opacity:0;"
         offset="1"
         id="stop4073" />
    </linearGradient>
    <linearGradient
       inkscape:collect="always"
       id="linearGradient3243">
      <stop
         style="stop-color:#000000;stop-opacity:1;"
         offset="0"
         id="stop3245" />
      <stop
         style="stop-color:#000000;stop-opacity:0;"
         offset="1"
         id="stop3247" />
    </linearGradient>
    <inkscape:perspective
       sodipodi:type="inkscape:persp3d"
       inkscape:vp_x="0 : 256.00002 : 1"
       inkscape:vp_y="0 : 1066.6667 : 0"
       inkscape:vp_z="1024 : 256.00002 : 1"
       inkscape:persp3d-origin="512 : 170.66668 : 1"
       id="perspective3190" />
    <inkscape:perspective
       id="perspective3237"
       inkscape:persp3d-origin="396.85039 : 374.17322 : 1"
       inkscape:vp_z="793.70078 : 561.25983 : 1"
       inkscape:vp_y="0 : 1066.6667 : 0"
       inkscape:vp_x="0 : 561.25983 : 1"
       sodipodi:type="inkscape:persp3d" />
    <linearGradient
       inkscape:collect="always"
       xlink:href="#linearGradient3243"
       id="linearGradient3249"
       x1="300.63159"
       y1="848.8421"
       x2="497.17896"
       y2="844.80005"
       gradientUnits="userSpaceOnUse" />
    <radialGradient
       inkscape:collect="always"
       xlink:href="#linearGradient6067"
       id="radialGradient6081"
       gradientUnits="userSpaceOnUse"
       gradientTransform="matrix(2.6313196,-0.9997844,0.5695089,1.4988831,-1001.9626,183.94862)"
       cx="467.39517"
       cy="562.39722"
       fx="467.39517"
       fy="562.39722"
       r="24.466236" />
    <radialGradient
       inkscape:collect="always"
       xlink:href="#linearGradient6115"
       id="radialGradient6161"
       gradientUnits="userSpaceOnUse"
       gradientTransform="matrix(-1.5251387,-1.212976,3.8976734,-4.5113451,-829.26278,3645.9677)"
       cx="509.02185"
       cy="551.91711"
       fx="509.02185"
       fy="551.91711"
       r="6.037765" />
    <radialGradient
       inkscape:collect="always"
       xlink:href="#linearGradient6087"
       id="radialGradient6165"
       gradientUnits="userSpaceOnUse"
       gradientTransform="matrix(-1.6725333,-1.8910376,1.1242936,-0.6453605,822.62872,1891.3275)"
       cx="521.02924"
       cy="552.78809"
       fx="521.02924"
       fy="552.78809"
       r="6.4200182" />
    <radialGradient
       inkscape:collect="always"
       xlink:href="#linearGradient6115"
       id="radialGradient6371"
       gradientUnits="userSpaceOnUse"
       gradientTransform="matrix(-1.5316039,-1.0234908,3.914196,-3.8066049,-827.24619,3159.5468)"
       cx="509.02185"
       cy="551.91711"
       fx="509.02185"
       fy="551.91711"
       r="6.037765" />
    <radialGradient
       inkscape:collect="always"
       xlink:href="#linearGradient6115"
       id="radialGradient6375"
       gradientUnits="userSpaceOnUse"
       gradientTransform="matrix(-1.5374793,-0.8658571,3.9292112,-3.220328,-824.95174,2755.8579)"
       cx="509.02185"
       cy="551.91711"
       fx="509.02185"
       fy="551.91711"
       r="6.037765" />
    <radialGradient
       inkscape:collect="always"
       xlink:href="#linearGradient6115"
       id="radialGradient6379"
       gradientUnits="userSpaceOnUse"
       gradientTransform="matrix(-1.7175885,-0.6439934,4.3895018,-2.3951644,-979.49406,2188.892)"
       cx="509.02185"
       cy="551.91711"
       fx="509.02185"
       fy="551.91711"
       r="6.037765" />
    <radialGradient
       inkscape:collect="always"
       xlink:href="#linearGradient6115"
       id="radialGradient6383"
       gradientUnits="userSpaceOnUse"
       gradientTransform="matrix(-1.9186167,-0.444173,4.9032532,-1.6519846,-1152.2198,1679.1493)"
       cx="509.02185"
       cy="551.91711"
       fx="509.02185"
       fy="551.91711"
       r="6.037765" />
    <radialGradient
       inkscape:collect="always"
       xlink:href="#linearGradient6115"
       id="radialGradient6387"
       gradientUnits="userSpaceOnUse"
       gradientTransform="matrix(-1.5117442,-0.455641,4.0612325,-0.9697718,-892.31741,1314.5893)"
       cx="509.02185"
       cy="551.91711"
       fx="509.02185"
       fy="551.91711"
       r="6.037765" />
    <radialGradient
       inkscape:collect="always"
       xlink:href="#linearGradient6087"
       id="radialGradient6391"
       gradientUnits="userSpaceOnUse"
       gradientTransform="matrix(-1.5240331,-1.8089293,1.0244703,-0.6173391,808.61689,1829.9831)"
       cx="520.00623"
       cy="551.0415"
       fx="520.00623"
       fy="551.0415"
       r="6.4200182" />
    <radialGradient
       inkscape:collect="always"
       xlink:href="#linearGradient6087"
       id="radialGradient6651"
       gradientUnits="userSpaceOnUse"
       gradientTransform="matrix(1.6732472,-0.8131686,-0.5912577,-0.7392223,-32.161728,1446.5175)"
       cx="521.02924"
       cy="552.78809"
       fx="521.02924"
       fy="552.78809"
       r="6.4200182" />
    <radialGradient
       inkscape:collect="always"
       xlink:href="#linearGradient6115"
       id="radialGradient6802"
       gradientUnits="userSpaceOnUse"
       gradientTransform="matrix(1.5316039,-1.0234908,-3.914196,-3.8066049,1903.8761,3240.9634)"
       cx="509.02185"
       cy="551.91711"
       fx="509.02185"
       fy="551.91711"
       r="6.037765" />
    <radialGradient
       inkscape:collect="always"
       xlink:href="#linearGradient6087"
       id="radialGradient6868"
       gradientUnits="userSpaceOnUse"
       gradientTransform="matrix(-2.1596599,-1.1149388,0.7400001,-0.9679189,1251.8988,1710.1917)"
       cx="520.00623"
       cy="551.0415"
       fx="520.00623"
       fy="551.0415"
       r="6.4200182" />
    <radialGradient
       inkscape:collect="always"
       xlink:href="#linearGradient6115"
       id="radialGradient7049"
       gradientUnits="userSpaceOnUse"
       gradientTransform="matrix(-0.7395892,-1.3950274,-4.5670172,-0.2959396,3369.6048,1500.8831)"
       cx="508.26645"
       cy="553.47693"
       fx="508.26645"
       fy="553.47693"
       r="6.037765" />
    <radialGradient
       inkscape:collect="always"
       xlink:href="#linearGradient6115"
       id="radialGradient7052"
       gradientUnits="userSpaceOnUse"
       gradientTransform="matrix(-0.7150585,-1.4411238,-4.4155386,-0.3057184,3273.1046,1525.8427)"
       cx="508.26645"
       cy="553.47693"
       fx="508.26645"
       fy="553.47693"
       r="6.037765" />
    <radialGradient
       inkscape:collect="always"
       xlink:href="#linearGradient6087"
       id="radialGradient7061"
       gradientUnits="userSpaceOnUse"
       gradientTransform="matrix(1.5462193,-2.4092412,-1.8123065,-1.163114,669.26194,2501.8021)"
       cx="521.02924"
       cy="552.78809"
       fx="521.02924"
       fy="552.78809"
       r="6.4200182" />
    <radialGradient
       inkscape:collect="always"
       xlink:href="#linearGradient6087"
       id="radialGradient7064"
       gradientUnits="userSpaceOnUse"
       gradientTransform="matrix(1.3464742,-2.1303092,-1.5781874,-1.0284535,641.0495,2288.0766)"
       cx="521.02924"
       cy="552.78809"
       fx="521.02924"
       fy="552.78809"
       r="6.4200182" />
    <radialGradient
       inkscape:collect="always"
       xlink:href="#linearGradient6087"
       id="radialGradient7073"
       gradientUnits="userSpaceOnUse"
       gradientTransform="matrix(3.4550954,-3.7225566,-3.5509106,-3.6615864,633.30909,4564.9431)"
       cx="518.8595"
       cy="551.10944"
       fx="518.8595"
       fy="551.10944"
       r="6.4200182" />
    <radialGradient
       inkscape:collect="always"
       xlink:href="#linearGradient6115"
       id="radialGradient7076"
       gradientUnits="userSpaceOnUse"
       gradientTransform="matrix(-1.0190148,-0.9276694,-2.4459782,2.2697482,2364.0293,-165.35357)"
       cx="511.67743"
       cy="552.97186"
       fx="511.67743"
       fy="552.97186"
       r="6.037765" />
    <radialGradient
       inkscape:collect="always"
       xlink:href="#linearGradient6115"
       id="radialGradient7079"
       gradientUnits="userSpaceOnUse"
       gradientTransform="matrix(1.5428431,-0.9378562,-2.1546301,-3.3512462,871.16947,2930.3324)"
       cx="508.09384"
       cy="553.5976"
       fx="508.09384"
       fy="553.5976"
       r="6.037765" />
    <radialGradient
       inkscape:collect="always"
       xlink:href="#linearGradient6115"
       id="radialGradient7085"
       gradientUnits="userSpaceOnUse"
       gradientTransform="matrix(0.9930846,-0.6951161,-1.9367805,-3.3058933,1069.2723,2792.1792)"
       cx="509.11847"
       cy="553.30322"
       fx="509.11847"
       fy="553.30322"
       r="6.037765" />
    <radialGradient
       inkscape:collect="always"
       xlink:href="#linearGradient6115"
       id="radialGradient7088"
       gradientUnits="userSpaceOnUse"
       gradientTransform="matrix(0.8773993,-0.5057283,-1.7111632,-2.4051862,990.00859,2191.9612)"
       cx="509.11847"
       cy="553.30322"
       fx="509.11847"
       fy="553.30322"
       r="6.037765" />
    <radialGradient
       inkscape:collect="always"
       xlink:href="#linearGradient6115"
       id="radialGradient7094"
       gradientUnits="userSpaceOnUse"
       gradientTransform="matrix(0.1720238,-1.1806479,-4.1951261,-0.4526116,2698.9774,1465.9612)"
       cx="508.26645"
       cy="553.47693"
       fx="508.26645"
       fy="553.47693"
       r="6.037765" />
    <inkscape:perspective
       id="perspective8517"
       inkscape:persp3d-origin="396.85039 : 374.17322 : 1"
       inkscape:vp_z="793.70078 : 561.25983 : 1"
       inkscape:vp_y="0 : 1066.6667 : 0"
       inkscape:vp_x="0 : 561.25983 : 1"
       sodipodi:type="inkscape:persp3d" />
    <clipPath
       id="Clip4">
      <path
         inkscape:connector-curvature="0"
         d="M 0,0 H 114.403 V 149.418 H 0 Z"
         transform="translate(44.9316,-0.3037)"
         id="path4355" />
    </clipPath>
    <clipPath
       id="Clip4-3">
      <path
         inkscape:connector-curvature="0"
         d="M 0,0 H 114.403 V 149.418 H 0 Z"
         transform="translate(44.9316,-0.3037)"
         id="path4355-5" />
    </clipPath>
  </defs>
  <sodipodi:namedview
     inkscape:window-height="838"
     inkscape:window-width="1600"
     inkscape:pageshadow="2"
     inkscape:pageopacity="0.0"
     guidetolerance="10.0"
     gridtolerance="10.0"
     objecttolerance="10.0"
     borderopacity="1.0"
     bordercolor="#666666"
     pagecolor="#ffffff"
     id="base"
     showgrid="false"
     inkscape:zoom="0.67101487"
     inkscape:cx="480"
     inkscape:cy="222.5403"
     inkscape:window-x="-8"
     inkscape:window-y="-8"
     inkscape:current-layer="svg2477"
     inkscape:window-maximized="1" />
  <g
     id="g355">
    <g
       id="g7726">
      <rect
         style="fill:#3771c8;fill-opacity:1;fill-rule:nonzero;stroke:none;stroke-width:1.06666672;stroke-miterlimit:4;stroke-dasharray:none;stroke-opacity:1"
         id="rect3689"
         width="341.33334"
         height="512"
         x="0"
         y="4.2666666e-006" />
      <rect
         style="fill:#ffff00;fill-opacity:1;fill-rule:nonzero;stroke:none;stroke-width:1.06666672;stroke-miterlimit:4;stroke-dasharray:none;stroke-opacity:1"
         id="rect3693"
         width="341.33334"
         height="512"
         x="682.66669"
         y="4.2666666e-006" />
      <rect
         y="7.2653252e-006"
         x="341.33334"
         height="512"
         width="341.33334"
         id="rect3691"
         style="fill:#ffffff;fill-opacity:1;fill-rule:nonzero;stroke:none;stroke-width:1.06666672;stroke-miterlimit:4;stroke-dasharray:none;stroke-opacity:1" />
    </g>
    <g
       transform="matrix(2.3895303,0,0,2.3992938,265.51379,96.454701)"
       id="Group4-6"
       clip-path="url(#Clip4-3)">
      <path
         sodipodi:nodetypes="ccccccccccccccccccccccccccccccccccccccccccccccccccccccccccccccccccccccccccccccccccccccccccccccccccccccccccccccccccccccccccccccccccccccccccccccccccccccccccccccccccccccccccccccccccccccccccccccccccccccccccccccccccccccccccccccccccccccccccccccccccccccccccccccccccccccccccccccccccccccccccccccccccscccccc"
         style="fill:#161413;fill-rule:nonzero;stroke:none"
         d="m 105.744,130.969 c 0,0 0.198,-1.234 -1.279,-1.166 l -0.284,-1.446 c 0,0 -0.074,-0.738 -0.546,-0.267 0,0 -0.988,1.005 -1.895,0.832 l -0.198,-1.991 c 0,0 -0.095,-0.452 -0.908,-0.264 0,0 -1.4455,0.375 -1.8078,0.378 0,0 -0.4658,-1.355 -0.2022,-2.353 0,0 0.5293,-1.545 -1.3652,-0.713 l -1.9824,1.105 -0.7461,-2.348 c 0,0 -0.0957,-0.543 -0.7266,-0.265 l -1.8047,0.83 -0.0263,-3.17 c 0,0 0.0478,-0.772 -0.8184,-0.355 0,0 -2.0351,0.92 -2.3564,-0.069 0,0 -0.3955,-2.503 -1.3819,-2.614 l -2.5234,1.381 -0.6543,-2.168 -2.3467,0.835 -1.5674,-3.156 c 0,0 -0.2783,-0.722 -0.998,-0.082 l -2.875,2.652 c 0,0 -1.2188,-0.792 -1.6494,-2.34 0,0 -0.2227,-0.879 -1.1797,-0.171 l -2.5205,1.743 c 0,0 -0.5401,0.276 -0.8174,-0.265 l -0.2773,-0.54 -0.5528,-1.083 c 0,0 -0.3076,-0.564 -0.9072,-0.173 0,0 -2.4287,1.743 -3.1494,2.383 0,0 -0.5791,0.532 -1.1787,-0.171 0,0 -2.0176,-2.928 -2.375,-2.424 l -1.7012,2.189 c 0,0 -0.8047,1.275 -0.8188,-0.355 L 58.2637,64.5678 c 0,0 0.7187,-3.2671 4.7881,1.1123 0,0 -1.4375,1.3716 -1.5996,3.5464 0,0 -0.1641,1.9038 -0.5215,2.4502 0,0 -0.5342,1.0918 0.1953,1.6284 0,0 0.2764,0.542 0.0088,0.9966 0,0 -0.5264,1.9072 0.8359,2.2568 0,0 1.3604,0.3501 1.8233,1.4327 0,0 0.6445,1.353 1.9131,1.3423 0,0 1.3593,0.0791 1.9052,0.436 0,0 1.9971,0.3452 2.0762,-0.9243 0,0 0.332,-2.1983 1.4102,-4.3599 0,0 3.0224,-8.6787 -6.6973,-9.7231 0,0 -0.7344,-1.2613 -2.9277,-3.4151 l -2.1026,-2.1553 c 0,0 0.7818,-13.9555 0.6782,-15.4946 0,0 -0.7275,-0.3564 -1.0908,-0.4433 l 0.3433,-2.1768 c 0,0 0.1723,-0.998 -0.917,-1.2603 0,0 -0.5415,-6.1972 6.6191,-5.5361 0,0 4.0196,0.2622 4.0039,8.5225 0,0 1.3623,0.5317 1.793,-2.0088 0,0 0.6191,-1.7261 1.1738,-0.3726 0,0 0.6582,2.7115 -0.3281,3.8072 0,0 -1.167,1.1879 0.4619,0.9018 0,0 0.2774,0.812 0.6377,0.5371 l 0.3594,-0.2744 1.8017,-1.1934 c 0,0 1.753,3.5171 -2.7128,10.8023 0,0 -0.8965,1.2163 0.3671,0.5405 l 3.6026,-2.3877 c 0,0 0.9043,-0.1884 1.1865,0.9864 0,0 0.1943,1.538 0.8291,1.623 0,0 0.1709,0.0127 0.083,-0.7256 0,0 -0.3056,-3.8013 1.332,-3 0,0 0.0459,1.9038 1.6456,1.7056 0,0 0.4433,-1.2715 -1.043,-5.334 0,0 -0.3711,-0.9937 0.5332,-1.1821 0,0 1.3574,-0.2837 1.4443,-0.6475 0,0 0.1084,-0.1909 -0.7295,-0.4458 0,0 -2.8173,-1.062 -1.6494,-2.1597 0,0 1.2119,-0.4013 2.2608,-0.4726 0,0 2.3105,-0.4942 2.6123,-1.6533 0,0 0.2675,-0.5459 -0.6368,-0.3565 0,0 -1.2275,0.0708 -2.9033,-0.4272 0,0 -1.0879,-0.1719 -1.9941,-0.2539 0,0 0.3476,-1.6338 1.6133,-1.917 0,0 2.1689,-0.4712 2.0703,-1.4673 L 78.7412,37.373 c 0,0 -0.1855,-0.542 1.1651,-1.459 0,0 2.7041,-1.3833 1.3398,-2.0957 0,0 -1.623,0.9199 -4.7959,0.586 0,0 -0.2969,-2.9864 0.2354,-4.169 0,0 0.332,-0.7905 -0.2744,-0.3589 0,0 -1.3506,1.0083 -2.3497,0.6543 0,0 -0.1025,-1.4482 0.7959,-2.1806 0,0 0.2579,-0.6187 -0.3662,-0.5401 0,0 -1.8007,1.2832 -2.6191,0.9282 0,0 -0.4541,-0.0859 0.084,-0.7246 0,0 0.8066,-1.0034 0.084,-0.8164 0,0 -1.8077,0.5596 -2.7022,1.7446 0,0 -0.4482,0.5474 -0.8144,0.0074 0,0 -0.3692,-0.7217 -0.6338,0.0058 0,0 -0.4239,3.355 -7.2227,2.5996 0,0 5.835,-5.8486 14.2656,-5.0166 0,0 3.2657,0.6963 4.9395,5.4815 0,0 1.1641,-1.4595 0.9756,-2.273 0,0 -0.3809,-2.08 0.7138,-1.0932 0,0 1.5498,0.8916 3.4737,3.501 0,0 0.7256,0.0844 0.4463,-0.7286 0,0 -0.6592,-2.9824 -1.5782,-4.4238 0,0 -0.0986,-0.9043 1.6163,-1.5537 0,0 1.0859,-0.1914 0.1748,-0.7266 0,0 -2.2598,0.3828 -2.3575,-0.3413 0,0 -0.0976,-0.8144 0.7119,-1.4555 0,0 1.2598,-0.8262 0.9795,-1.8204 0,0 -0.7197,0.46 -2.0781,0.5625 l -1.3574,0.1026 -1.54,0.0132 c 0,0 0.9853,-1.3672 0.7949,-2.271 l -3.4307,1.2978 c 0,0 -1.1719,0.5547 -0.8242,-0.9887 l 0.4248,-3.2642 c 0,0 -2.6885,3.1934 -4.1396,2.9346 0,0 -0.6397,-0.5371 0.6982,-2.9043 0,0 -0.249,-0.2691 -0.6328,0.0962 0,0 -2.6045,2.4682 -3.5137,2.2045 0,0 -0.0078,-0.9057 0.6113,-2.541 0,0 0.6827,-1.2256 0.0059,-0.8642 -0.1338,0.0713 -0.2842,0.1411 -0.2842,0.1411 0,0 -3.206,1.3872 -5.5596,6.209 0,0 -1.7744,4.0913 -4.8305,6.7446 0,0 -0.3028,-3.5293 3.0112,-7.7251 l 4.3926,-5.0205 c 0,0 4.1523,-3.8003 7.8828,0.2925 0,0 -0.0771,-2.7969 1.4277,-2.4575 0,0 2.6348,0.9726 3.8106,0.7807 0,0 -0.7158,-3.1528 -2.1143,-3.5137 L 76.6026,10.582 c 0,0 -1.0909,-0.5337 -0.2813,-1.084 0,0 2.0654,-2.0117 0.9795,-1.8203 0,0 -1.5293,1.0093 -2.167,0.7432 0,0 -0.9082,-0.3541 -1.6279,0.2871 0,0 -0.9004,0.5507 -1.3555,0.2832 0,0 -0.2285,-1.4761 0.3399,-2.4488 0,0 0.3418,-0.8423 -0.4561,-0.5395 0,0 -1.4453,0.5566 -2.8828,1.8369 0,0 -0.9873,0.915 -0.9063,-0.0825 0,0 0.3418,-2.2671 -0.1953,-1.6289 L 65.4522,9.413 c 0,0 -0.8076,1.0938 -0.9063,-0.0825 L 64.711,7.5166 c 0,0 -3.2413,2.2036 -4.295,5.9257 0,0 -0.0644,2.899 -0.6987,2.9043 0,0 -0.5478,-0.4472 -0.123,-3.7124 0,0 1.9116,-9.2553 -1.8296,-12.3022 0,0 -1.0625,-0.332 -1.2569,1.2798 0,0 -0.7246,5.0786 -0.7949,7.4341 0,0 -0.4712,3.0839 0.3076,9.2358 0,0 0.794,7.7827 -0.2612,11.4145 0,0 -2.0962,-1.5214 -1.9609,-6.685 0,0 0.4731,-7.9746 -1.0899,-10.5874 0,0 -0.5483,-0.5396 -0.5381,0.6387 0,0 0.1123,2.4438 -0.5215,2.4497 0,0 -0.5507,-0.8101 -0.4721,-2.1695 l 0.0786,-1.3598 c 0,0 0.2402,-1.8233 -0.5483,-0.6285 0,0 -0.8975,1.0044 -1.0015,-0.5351 L 49.5928,8.2841 c 0,0 -0.1885,-0.813 -0.6343,0.0054 0,0 -0.8823,2.6353 -1.5229,1.916 0,0 -1.0225,-2.98 -3.0318,-4.8642 0,0 -0.5429,0.0952 -0.3554,0.8188 0,0 1.1176,3.4317 -0.4288,2.7202 0,0 -2.728,-1.2431 -3.5576,-2.8667 0,0 -0.8217,-0.8081 -0.7231,0.1875 0,0 0.9267,1.649 0.1968,1.7198 0,0 -1.2593,0.2309 -2,-0.7979 0,0 -1.0035,-0.8062 -0.813,0.2793 0,0 0.8388,2.6187 0.2954,2.6235 0,0 -1.1763,0.1011 -2.086,-0.3432 0,0 -2.0625,-0.8369 -1.9028,-0.0742 0.0943,0.4516 0.3677,0.6303 0.9175,1.3505 0,0 1.0054,0.9873 0.0112,1.2681 0,0 -2.438,0.8369 -4.5688,5.7461 0,0 -0.2993,1.0972 1.0879,0.0811 0,0 7.8105,-7.8584 15.6792,1.1298 l -0.9864,1.0953 -3.8369,-3.6797 c 0,0 -0.8086,0.8222 0.3853,2.623 0,0 0.9536,1.2525 0.2031,2.4439 0,0 -6.0933,-6.3833 -6.2998,-5.7413 0,0 -0.7192,0.6412 0.8398,2.8916 0,0 0.3912,1.7178 -0.3471,1.7232 0,0 -2.7661,-0.2153 -4.9751,-0.4839 0,0 -0.9468,-0.0757 -1.5064,-0.3037 0,0 -0.4682,0.7959 0.8833,1.4175 0,0 4.0567,2.1015 1.3677,2.4424 0,0 -2.1352,0.3364 -4.6841,-1.3838 0,0 -0.6176,1.747 1.9346,3.8623 0,0 0.7173,0.4697 0.0884,1.0293 0,0 -1.8091,1.3613 -2.2622,3.8198 0,0 -0.2212,1.9019 -0.7666,2.8574 0,0 1.1899,0.3057 2.4438,-1.209 l 1.021,-0.9599 c 0,0 0.6309,-0.2427 0.7974,0.7055 0,0 0.0317,3.563 0.8232,3.5562 0,0 0.3364,0.0806 0.6255,-0.9556 0,0 2.2827,-9.1889 9.1904,-8.2363 0,0 5.0708,0.4302 9.7808,4.8223 0,0 -0.2334,0.3974 -1.8169,0.4116 0,0 -2.082,-2.6734 -7.3984,-3.9727 0,0 -1.2701,-0.3051 -0.3907,0.5581 0,0 2.1519,1.6436 1.3643,2.1255 0,0 -3.6494,-0.8384 -5.9419,-0.4223 0,0 -0.2339,0.3974 0.4019,0.7089 0,0 2.3852,1.087 1.122,1.4947 0,0 -3.3276,-0.208 -5.2925,1.3925 0,0 0.6402,0.7857 2.147,1.0889 0,0 -3.1533,1.5322 -4.3257,3.2061 0,0 -0.2338,0.4765 0.5581,0.4692 0,0 3.9551,-0.3516 3.0127,0.4487 0,0 -3.4682,1.773 -5.2461,6.6973 0,0 -0.0712,0.7925 0.7159,0.3101 0,0 2.5185,-1.6846 2.5278,-0.6558 0,0 -0.2598,6.4155 0.4575,6.9634 0,0 0.4834,1.0254 2.2735,-2.5537 0,0 0.996,-2.5474 2.3686,-0.7334 l 1.8403,2.2011 c 0,0 0.8028,1.2588 1.0288,-0.0097 0,0 0.5362,-2.0635 0.358,-4.3579 0,0 0.1782,-0.6704 0.5527,-0.1631 0,0 0.0532,1.8183 0.959,1.021 l -0.0083,-0.9497 c 0,0 2.1323,-0.6519 2.145,0.8515 l 0.0132,1.5044 c 0,0 -0.395,1.4561 0.2593,2.4522 l 0.0112,1.2661 c 0,0 -0.0698,1.0308 0.4775,0.2344 l 0.5469,-0.7964 0.7813,-1.1948 c 0,0 0.4687,-0.7173 0.8691,-0.1666 0,0 1.8486,3.0713 4.938,3.2813 l 0.2739,-4.8315 c 0,0 1.0293,-0.0889 0.376,-2.2994 0,0 -0.3252,-0.9477 0.2265,-1.2685 0,0 0.356,-0.332 -0.0073,-0.7915 0,0 -0.4868,-1.3423 0.459,-1.8252 0,0 0.2319,-0.4351 -0.1685,-1.1069 0,0 -0.832,-4.586 0.5865,-5.3892 0,0 0.7885,-0.3237 0.7949,0.3887 l 0.0063,0.7124 c 0,0 -0.9716,21.9643 -0.5903,34.3696 l 0.5737,44.4661 c 0,0 -0.6123,2.362 -2.8081,-0.065 0,0 -1.0097,-1.532 -1.9057,-0.437 0,0 -0.4434,1.092 -0.9009,0.552 l -1.5523,-1.345 -0.6269,0.73 c 0,0 -0.3472,0.598 -1,-0.444 0,0 -0.4751,-0.741 -1.0889,-0.171 l -1.438,1.28 c 0,0 -2.4707,-2.876 -3.56,-3.138 l -2.4141,3.554 c 0,0 -0.6225,1.273 -1.1738,0.372 0,0 -0.6797,-1.008 -1.1792,-0.171 -0.1914,0.321 -0.2676,0.456 -0.2676,0.456 0,0 -0.2002,0.473 -0.7222,0.277 0,0 -0.767,-0.835 -1.2192,0.134 -0.3467,0.741 -0.4028,0.878 -0.4028,0.878 l -0.7969,1.999 c 0,0 -0.5342,1.092 -1.2666,0.192 0,0 -1.3711,-1.436 -1.5386,0.104 l -0.1709,1.18 c 0,0 -0.1723,0.998 -0.9922,0.462 0,0 -0.8676,-0.82 -1.269,-0.08 l -0.8911,1.638 c 0,0 -0.6279,0.73 -1.085,0.281 l -0.4565,-0.449 c 0,0 -0.7671,-1 -1.086,0.01 -0.2314,0.731 -0.353,1.09 -0.353,1.09 0,0 -0.1943,1.112 -1.1728,0.554 l -1.1831,-0.623 -0.5303,1.453 c 0,0 -0.2407,0.92 -1.085,0.191 0,0 -0.914,-0.898 -1.2666,0.192 l -0.3525,1.09 c 0,0 -0.3506,1.362 -0.9898,0.734 0,0 -1.1455,-1.484 -1.539,0.104 l -0.3511,1.272 -1.8125,-0.166 c 0,0 -1.4507,-0.168 -0.4429,1.181 l 1.0078,1.35 c 0,0 0.3252,0.903 -0.6215,1.364 6.180279,2.1327 10.072998,1.72248 13.252282,0.41983 3.179285,-1.30264 5.645135,-3.49771 11.011408,-4.52673 5.8814,-0.941 13.278689,-0.73223 13.278689,-0.73223 4.576754,-1.56219 8.830622,-1.31061 13.553718,-0.94181 0,0 3.943137,1.47413 7.097437,0.97013 0,0 2.440597,-0.30981 5.351197,-0.21081 17.178358,0.26796 27.763709,6.89783 29.988269,1.74962 z"
         transform="translate(44.9316,-0.3037)"
         id="path4456-5"
         inkscape:connector-curvature="0" />
      <path
         style="fill:none;stroke:#161413;stroke-width:0.054342;stroke-linecap:butt;stroke-linejoin:miter;stroke-dasharray:none"
         d="m 0.3584,0.6445 0.6289,-0.458 c 0,0 0.6329,-0.1865 0.7295,0.5367 0,0 0.0069,0.7251 -0.7197,0.5502 0,0 -0.9971,-0.1733 -0.6387,-0.6289 z"
         transform="translate(146.689,129.419)"
         id="path4458-2"
         inkscape:connector-curvature="0" />
      <path
         style="fill:#008f33;fill-rule:nonzero;stroke:none"
         d="m 35.2867,125.925 c -11.6031,-1.074 -18.4434,3.786 -18.4434,3.786 l -3.1709,-0.062 c -0.0947,-0.453 0.0757,-1.723 0.0757,-1.723 0.0942,-0.783 1.1719,-0.35 1.1719,-0.35 l 1.2246,0.096 c 0.5303,-1.454 1.1167,-1.86 1.1167,-1.86 l 1.5429,0.35 c 1.1929,0.295 1.1846,-0.622 1.1846,-0.622 0,0 -0.0034,-0.411 0.1612,-0.84 0.2768,-0.722 0.8115,-0.46 0.8115,-0.46 l 1.1836,0.714 c 1.0952,0.987 2.062,-2.373 2.062,-2.373 0,0 -0.0127,-0.007 0.3559,-0.728 0.2852,-0.558 0.7222,-0.278 0.7222,-0.278 l 1.6411,1.254 c 0.9097,0.445 1.0786,-0.915 1.0786,-0.915 l 0.0835,-0.816 c -0.0083,-0.997 0.7227,-0.279 0.7227,-0.279 l 1.0942,0.896 c 0.9121,0.717 1.7075,-1.554 1.7075,-1.554 0.4512,-1.046 1.1753,-0.282 1.1753,-0.282 l 1.2788,1.256 c 0.9126,0.718 1.8062,-0.559 1.8062,-0.559 1.1211,-1.22 1.9941,0.163 1.9941,0.163 0,0 0,0 0.7329,0.9 0.732,0.899 1.3609,0.26 1.3609,0.26 l 0.8066,-0.913 c 0.8057,-1.094 1.8164,0.527 1.8164,0.527 0.9165,1.166 1.4488,-0.103 1.4488,-0.103 1.1577,-2.184 2.5341,-0.203 2.5341,-0.203 0.8482,1.09 1.4527,0.348 1.4527,0.348 l 2.0605,-2.463 c 0.3985,-0.329 0.7246,0.175 0.7246,0.175 l 1.378,1.98 0.8945,-1.095 c 0.3584,-0.546 0.9062,-0.008 0.9062,-0.008 l 0.6407,0.719 c 0.7314,0.718 1.3613,0.35 1.3613,0.35 l 1.3486,-1.098 0.4287,0.7 c 0.5782,1.006 1.7491,-0.176 1.7491,-0.176 0.4492,-0.548 0.6338,-0.096 0.6338,-0.096 l 1.3701,1.347 0.8105,-0.642 c 0.6289,-0.458 0.9043,-0.099 0.9043,-0.099 l 0.8281,1.442 1.2608,-0.917 0.5508,0.901 c 0.4609,0.902 1.6298,0.076 1.6298,0.076 1.2647,-0.373 1.2715,0.261 1.2715,0.261 l 0.0977,0.904 1.6289,-0.286 c 0.4932,-0.177 0.5459,0.267 0.5459,0.267 l 0.2783,0.723 c 0.2793,0.993 1.0908,0.533 1.0908,0.533 l 0.6319,-0.277 0.9179,1.35 1.3545,-0.464 c 1.3623,0.441 0.1016,1.267 0.1016,1.267 -2.3506,0.474 -5.5322,-0.857 -5.5322,-0.857 -5.544,-2.216 -14.4893,0.309 -14.4893,0.309 -0.9941,0.281 -1.6328,-0.166 -1.6328,-0.166 -8.9019,-3.092 -16.397,-0.58 -16.397,-0.58 -0.8115,0.46 -2.081,0.29 -2.081,0.29 z m 51.6489,2.532 -0.2891,-1.99 c 0,0 -0.6377,-0.356 -1.3574,0.194 0,0 -0.9053,0.008 -1.2705,-0.351 l -0.1113,-2.173 c 0,0 -0.3653,-0.45 -1.086,-0.081 -0.7216,0.368 -0.7216,0.368 -0.7216,0.368 l -0.9014,0.461 c 0,0 -0.7393,0.395 -0.9131,-0.716 l -0.1006,-1.177 c 0,0 -0.3301,-1.329 -1.5439,-0.439 0,0 -1.7969,1.737 -1.6397,-0.982 l 0.0801,-1.268 c 0,0 0.0977,-0.987 -1.001,-0.535 l -1.082,0.462 c 0,0 -1.1719,0.645 -1.2764,-0.894 -0.1035,-1.539 -0.1035,-1.539 -0.1035,-1.539 0,0 -0.1924,-1.085 -1.0019,-0.535 -0.8106,0.551 -0.8106,0.551 -0.8106,0.551 l -0.9902,0.642 c 0,0 -0.7266,-0.174 -0.8262,-1.26 0,0 0.0781,-1.359 -1.0019,-0.716 l -1.0811,0.734 c 0,0 -1.0947,-0.805 -1.1943,-1.801 0,0 -0.1036,-1.538 -0.8301,-1.713 l -2.7852,2.47 c 0,0 -0.8105,0.641 -1.3623,-0.35 l -1.0127,-1.893 c 0,0 -0.6396,-0.538 -1.6279,0.286 l -1.2588,1.007 c 0,0 -0.8066,1.004 -1.6299,0.014 l -1.0088,-1.259 c 0,0 -0.4589,-0.721 -1.2675,0.011 -0.8096,0.732 -0.8096,0.732 -0.8096,0.732 l -1.168,1.007 c 0,0 -0.8945,1.185 -1.9013,-0.074 -1.0069,-1.259 -1.0069,-1.259 -1.0069,-1.259 0,0 -0.7334,-0.989 -1.1797,-0.261 -0.4463,0.728 -0.4463,0.728 -0.4463,0.728 l -1.9687,2.826 c 0,0 -0.2896,0.769 0.4653,1.354 0.7158,0.555 0.7295,0.537 0.7295,0.537 0,0 0.9126,0.807 1.4497,0.077 l 1.9727,-2.28 c 0,0 0.54,-0.814 1.0635,-0.163 0.3505,0.44 0.5439,0.753 0.5439,0.753 0,0 0.833,1.478 1.3008,0.651 l 0.5332,-1.182 c 0,0 0.2666,-0.761 0.9414,0.096 0.5439,0.691 0.6973,0.886 0.6973,0.886 0,0 0.6474,1.156 1.455,0.621 l 0.9883,-0.914 c 0,0 0.8086,-0.642 0.9981,0.262 0,0 0.1035,1.449 1.0937,0.715 l 0.7188,-0.64 c 0,0 0.3076,-0.511 0.6367,0.266 0.3789,0.899 0.3701,0.902 0.3701,0.902 0,0 0.1865,0.724 0.9062,0.173 0.7208,-0.549 0.7208,-0.549 0.7208,-0.549 0,0 0.8085,-0.732 1.0869,0.081 0,0 0.0146,1.63 0.8261,1.08 0,0 0.9854,-1.097 1.2666,-0.102 l 0.0079,0.816 c 0,0 0.3701,1.083 1.54,0.166 0,0 1.8906,-1.284 2.083,0.073 0,0 0.0127,1.358 0.9131,0.717 0,0 0.9892,-0.825 1.1767,-0.102 l 0.3711,0.903 c 0,0 0.1885,0.994 0.9092,0.535 0,0 0.8096,-0.641 0.9063,-0.007 0,0 -0.166,1.721 1.0957,1.076 l 0.7207,-0.459 c 0,0 0.8105,-0.55 1,0.444 0,0 0.1025,1.358 0.7334,0.989 0,0 1.3584,-0.725 1.1826,0.443 0,0 -0.2002,1.378 2.459,1.609 0,0 3.1738,0.515 3.8994,0.599 0,0 1.1797,0.256 1.7246,0.347 z m -85.7485,2.75 c 0,0 5.5122,-1.407 7.8628,-1.88 l 1.1611,-1.912 1.727,0.709 c 0,0 0.3628,0.087 0.628,-0.64 0.2656,-0.727 0.2656,-0.727 0.2656,-0.727 l 0.3545,-0.909 c 0,0 0.4429,-1.091 1.1743,-0.282 0.7324,0.809 0.7324,0.809 0.7324,0.809 0,0 0.273,0.178 0.5391,-0.457 l 0.6196,-1.636 c 0,0 0.3545,-0.909 1.2656,-0.283 0.9112,0.626 0.9112,0.626 0.9112,0.626 0,0 0.3491,0.303 0.5405,-0.277 0.2437,-0.734 0.2656,-0.727 0.2656,-0.727 l 0.5308,-1.453 c 0,0 0.2646,-0.818 0.9048,-0.099 0.6406,0.719 0.6406,0.719 0.6406,0.719 l 0.7519,0.831 1.7608,-3.48 c 0,0 0.4419,-1.182 1.1738,-0.373 0.7324,0.809 0.7324,0.809 0.7324,0.809 0,0 1.3716,1.527 1.3575,-0.103 0,0 0.0722,-2.084 0.9795,-1.91 l 1.5498,1.164 c 0,0 0.8203,0.627 1.3559,-0.285 0.5357,-0.91 0.5357,-0.91 0.5357,-0.91 l 0.4458,-0.819 2.0981,1.703 c 0,0 0.7329,0.898 1.6318,0.167 0.8995,-0.733 0.8995,-0.733 0.8995,-0.733 l 0.6289,-0.549 1.7392,2.067 c 0,0 0.501,0.601 1.085,-0.19 0.6889,-0.933 0.7168,-0.912 0.7168,-0.912 0,0 0.5371,-0.73 1.1748,-0.283 0.6382,0.448 0.6382,0.448 0.6382,0.448 0,0 0.915,1.078 1.3608,0.259 l 0.4453,-0.818 c 0,0 0.3067,-0.381 -0.4624,-1.083 -0.522,-0.477 -0.5473,-0.449 -0.5473,-0.449 0,0 -1.6387,-1.609 -2.2549,-0.994 l -0.5547,0.747 c 0,0 -0.1758,0.636 -1.3609,-0.26 -1.186,-0.894 -1.186,-0.894 -1.186,-0.894 0,0 -0.7187,-0.807 -0.9966,-0.082 0,0 -0.6181,1.817 -1.351,0.828 -0.7334,-0.991 -0.7334,-0.991 -0.7334,-0.991 0,0 -0.8252,-1.08 -1.3565,0.284 0,0 -0.1733,0.907 -0.8125,0.278 0,0 -0.6445,-1.171 -1.2725,-0.531 0,0 -1.1616,1.821 -2.351,0.473 -1.19,-1.348 -1.19,-1.348 -1.19,-1.348 0,0 -1.1382,-1.611 -1.727,-0.709 l -2.4146,3.463 -0.5473,-0.448 c 0,0 -0.5816,-0.615 -0.815,0.007 -0.2427,0.646 -0.2661,0.636 -0.2661,0.636 0,0 -0.2817,0.893 -0.8999,0.642 l -0.6377,-0.357 c 0,0 -0.6372,-0.447 -0.9888,0.825 l -0.2597,1.361 c 0,0 -0.2603,1.36 -1.169,1.006 -0.9082,-0.354 -0.9082,-0.354 -0.9082,-0.354 0,0 -0.9404,-0.517 -1.1728,0.554 l -0.3511,1.271 c 0,0 -0.0303,0.705 -0.7217,0.369 -0.8012,-0.39 -0.8178,-0.355 -0.8178,-0.355 0,0 -0.8184,-0.356 -1.2632,0.554 -0.4449,0.91 -0.4449,0.91 -0.4449,0.91 0,0 -0.2646,0.817 -0.811,0.46 -0.5469,-0.358 -0.5469,-0.358 -0.5469,-0.358 0,0 -0.768,-0.637 -0.9555,-0.154 -0.2027,0.52 -0.3076,0.709 -0.3076,0.709 l -0.3526,1.09 c 0,0 -0.0561,0.479 -0.8135,0.188 -0.9111,-0.35 -0.9087,-0.354 -0.9087,-0.354 0,0 -0.9038,-0.484 -0.9941,0.281 0,0 -0.166,1.722 -0.6221,1.363 -0.456,-0.358 -0.456,-0.358 -0.456,-0.358 0,0 -0.8228,-0.898 -1.1773,0.01 l -0.4419,1.272 c 0,0 -0.4389,1.545 -1.5317,0.83 L 1.709,128.757 c 0,0 -0.0864,0.454 0.0992,0.996 0,0 0.1865,0.633 -0.7198,0.55 0,0 -1.0884,-0.172 -0.6303,0.458 z M 54.0508,12.3379 c 0,0 3.5215,-1.1865 5.7744,0.0161 0,0 0.8194,0.5366 0.6768,-0.209 -0.1426,-0.7465 -0.1426,-0.7465 -0.1426,-0.7465 l -0.1426,-0.7461 c 0,0 1.085,-0.3492 1.9053,0.2548 0,0 0.9571,0.8077 2.3799,0.3868 0,0 0.0498,-2.0376 -4.292,-1.5245 l -0.2725,0.003 1.0733,-1.4365 c 0,0 0.6055,-0.752 -0.4785,-0.4707 0,0 -2.6446,0.6342 -4.4571,2.9594 0,0 -0.8115,0.4829 -0.4794,-0.3344 l 1.8701,-3.6851 c 0,0 0.2617,-1.0894 -0.4131,-0.54 0,0 -1.8291,0.4917 -3.4102,6.144 z m -2.4336,1.4473 c 2.6993,-2.1294 1.9121,-6.605 1.9121,-6.605 -3.3115,1.8633 -1.9121,6.605 -1.9121,6.605 z m -2.2177,2.6015 c 0,0 1.1425,-1.3007 1.1923,-3.2714 0.0508,-1.9708 0.0508,-1.9708 0.0508,-1.9708 0,0 0.167,-4.145 -0.6406,-3.3222 0,0 -1.5869,1.3486 -1.3301,3.0683 0,0 0.5733,3.4595 0.7276,5.4961 z m -2.4151,3.418 0.9405,-1.231 c 0,0 -0.0235,-2.6494 0.3095,-3.3999 0,0 0.3145,-2.8554 -0.2344,-3.4619 0,0 -0.3417,-0.2685 -0.6035,0.8887 0,0 -0.2539,2.0396 -0.5215,2.5171 0,0 -0.4013,0.6831 -0.3242,1.77 0.0782,1.086 0.0782,1.086 0.0782,1.086 0,0 0.0878,2.3085 0.3554,1.831 z m -3.3901,0.709 0.1816,5.1611 c 0.8853,0.2642 0.9116,-4.4233 0.9116,-4.4233 0.1177,-1.2461 -0.1528,-1.9009 -0.1528,-1.9009 -0.5522,-1.0142 -1.1181,-3.5903 -1.1181,-3.5903 -0.5865,2.8584 0.1777,4.7534 0.1777,4.7534 z m -0.6211,-8.7573 1.1865,3.5893 c 0,0 0,0 0.3506,1.2202 0.3506,1.2188 0.478,0.2671 0.478,0.2671 l 0.1148,-2.3779 c 0,0 0,0 0.0561,-1.3594 0.0562,-1.3594 -1.1201,-3.7265 -1.1201,-3.7265 0,0 0,0 -0.3467,-0.8121 -0.3466,-0.812 -0.75,-0.2651 -0.75,-0.2651 z m 0.331,-8.6983 c -0.0156,2.9234 1.4048,5.2183 1.4048,5.2183 0,0 0,0 0.4165,1.0835 0.4175,1.0825 0.4556,-2.3145 0.4556,-2.3145 0,0 0,0 0.0483,-2.1733 C 45.6788,2.6978 44.4424,1.2144 44.4424,1.2144 43.481,0 43.3042,3.0581 43.3042,3.0581 Z m -1.0219,33.8814 c 0,0 -0.0855,0.4951 -0.0962,1.0449 -0.0195,1.0185 0.6128,0.1982 0.6128,0.1982 1.2407,-5.7168 6.7324,-6.9199 6.7324,-6.9199 -4.0879,-1.3906 -7.2251,4.9541 -7.2251,4.9541 z m 10.0371,-5.1582 c 2.8662,1.4008 4.1318,6.3486 4.1318,6.3486 1.0733,-1.5713 0.3076,-3.6709 0.3076,-3.6709 -0.1435,-0.8818 0.9473,-0.416 0.9473,-0.416 1.3037,1.5513 2.0147,5.0776 2.0147,5.0776 1.4746,-2.3227 0.3066,-3.8076 0.3066,-3.8076 -2.0635,-2.8345 -7.7109,-3.8716 -7.7109,-3.8716 -0.3389,0.003 0.0029,0.3399 0.0029,0.3399 z m -7.5029,27.1709 -0.1226,1.4272 c 0,0 1.4912,-0.353 2.314,0.5903 0,0 1.0234,0.4673 -0.0039,-0.5429 0,0 -1.1661,-1.2119 -2.1875,-1.4746 z m -2.8643,-1.334 c 0.8213,0.6723 1.6323,0.2573 1.6323,0.2573 1.3447,-0.9707 1.3267,-3.6113 1.3267,-3.6113 L 44.8521,47.607 Z M 42.606,47.0835 c -0.5327,1.2271 -0.915,4.0161 -0.915,4.0161 l 0.0966,3.3277 c 0.064,-0.4766 1.5181,-5.0406 1.5181,-5.0406 0,0 0,0 0.5303,-1.499 0.5303,-1.4995 0.102,-3.8052 0.102,-3.8052 -0.2597,1.3609 -1.332,3.001 -1.332,3.001 z m -0.772,-2.8462 c 0,0 0,0 0.0103,1.2227 0.0112,1.2221 0.2119,0.8808 0.2119,0.8808 0.6782,-0.0737 1.4541,-4.5644 1.4541,-4.5644 L 43.483,38.7197 c -1.9649,0.5611 -1.649,5.5176 -1.649,5.5176 z m 19.3291,-3.2964 c 2.2842,-2.9409 0.2364,-4.1455 0.2364,-4.1455 -0.8828,0.1441 -0.2364,4.1455 -0.2364,4.1455 z m 1.5664,0.3262 c 0.6202,1.0137 0.501,2.9844 0.501,2.9844 0.4444,-3.604 -0.3086,-4.2774 -0.3086,-4.2774 -0.3408,0.0035 -0.1924,1.293 -0.1924,1.293 z m -2.0878,9.8008 c 2.2402,-0.1553 2.3222,-6.2705 2.3222,-6.2705 -0.6474,3.5381 -2.3222,6.2705 -2.3222,6.2705 z m 3.54,-6.8247 c 0,0 -0.1133,2.5825 -0.6494,3.3345 0,0 -0.5371,0.8198 0.0263,3.0566 0,0 0.4795,0.4038 0.4717,-0.479 C 64.0225,49.272 64.0225,49.272 64.0225,49.272 l -0.0098,-1.0874 c 0,0 0.0606,-0.8833 0.6758,-0.4131 0.6153,0.4697 0.6153,0.4697 0.6153,0.4697 0,0 1.164,0.9405 1.0185,-0.0766 0,0 -0.1474,-1.2212 -1.7832,-2.022 0,0 -0.6191,-0.7422 0.1279,-0.8169 0.7471,-0.0742 0.7471,-0.0742 0.7471,-0.0742 0,0 1.2901,-0.0112 0.333,-0.75 0,0 -0.4814,-0.607 -1.5654,-0.2583 z m -0.2275,-2.7832 0.0781,1.2226 c 0,0 0.4092,0.2676 1.083,-0.3491 0,0 1.4844,-1.3042 1.8232,-1.3071 0,0 1.044,-0.6753 -0.4834,-0.8789 0,0 -1.3593,-0.124 -2.5009,1.3125 z m -0.087,-2.105 1.2725,-1.981 c 0,0 0.1426,-0.1435 0.0664,-0.2724 -0.1436,-0.2407 -1.6269,0.354 -1.6269,0.354 -0.8125,0.3472 0.288,1.8994 0.288,1.8994 z m -1.042,-2.5044 1.876,-3.0049 c -1.8388,-0.5957 -3.1816,1.1826 -3.1816,1.1826 z m -2.4677,-2.5591 c 0.6836,0.5376 1.2158,-0.8261 1.2158,-0.8261 0.5312,-1.4312 -0.0313,-3.4644 -0.0313,-3.4644 -1.3554,0.352 -2.4863,3.0112 -2.4863,3.0112 -0.1318,0.5449 1.3018,1.2793 1.3018,1.2793 z m -7.5049,-3.6699 0.9521,0.1279 c 0,0 -0.2119,-1.0175 0.2627,-1.0219 0,0 -1.0224,-0.4664 -1.2148,0.894 z m 2.165,-0.9707 c -0.3271,0.8682 0.1514,1.6294 0.1514,1.6294 l 0.4766,0.1992 c 1.2939,0.3291 0.5849,-2.9941 0.5849,-2.9941 -0.2099,-0.6768 -1.2129,1.1655 -1.2129,1.1655 z m 3.9981,-1.2578 c -0.6807,0.0063 -1.6153,1.7129 -1.6153,1.7129 -0.5341,1.0913 -0.0507,2.0385 -0.0507,2.0385 l 0.5478,0.4024 c 1.2949,0.5322 1.2725,-2.0488 1.2725,-2.0488 0.0605,-0.8838 0.3252,-1.5655 0.3252,-1.5655 0.2646,-0.7495 -0.4795,-0.5395 -0.4795,-0.5395 z m -14.7803,3.1875 c 0,0 1.5356,-3.0025 2.8232,-3.353 0,0 2.1622,-1.3106 2.7657,-2.1983 0,0 -4.2027,0.9883 -5.7964,5.1455 0,0 -0.1992,0.4776 0.2075,0.4058 z m -0.9023,-2.166 c -0.2652,0.75 0.4775,0.268 0.4775,0.268 0.7363,-1.2295 0.3906,-1.9057 0.3906,-1.9057 z m 22.6718,-1.8301 0.0547,-1.4951 c -0.2793,-0.8809 -2.3222,-1.3379 -2.3222,-1.3379 0.0048,0.543 2.2675,2.833 2.2675,2.833 z m -5.3388,-4.5718 1.9013,-0.0166 c 0,0 2.4297,-1.7881 2.4883,-2.8081 0,0 -0.4795,-0.4707 -1.9658,0.4253 0,0 -3.2461,1.7271 -2.4238,2.3994 z m 3.4697,0.648 c 0,0 2.2471,0.5239 4.0605,-1.6661 0,0 0.7393,-1.0258 -1.6318,-0.3251 0,0 -2.6416,0.9741 -2.4287,1.9912 z m 2.0469,0.9331 3.2109,2.146 c 0,0 0.8877,0.5351 0.2002,-0.4781 l -1.2363,-1.4834 c 0,0 -0.2764,-0.4731 0.3359,-0.4101 0,0 1.1543,-0.1465 0.54,-0.3443 0,0 -4.2822,-0.3701 -3.0507,0.5699 z m -16.0274,0.4809 c 0,0 4.5762,-4.8633 4.416,-7.5796 l -0.2119,-0.9482 c 0,0 -0.872,1.3657 -1.3437,1.7778 0,0 -3.959,5.4014 -4.1504,6.8296 0,0 0.1406,0.4741 1.29,-0.0796 z m 3.5205,-1.2534 c 0,0 3.7803,-2.751 4.0264,-5.6059 0,0 -0.208,-0.542 -0.8818,0.0756 0,0 -3.4385,3.0869 -4.5723,5.4746 0,0 -0.1992,0.5459 0.7519,0.4014 0,0 0.3389,-0.0713 0.6758,-0.3457 z m 4.5889,-3.5049 c 0,0 0,0 -1.4141,1.439 -1.415,1.4394 -0.8007,1.6367 -0.8007,1.6367 1.2246,0.1934 2.9834,-0.7051 2.9834,-0.7051 3.038,-2.0644 2.539,-4.7094 2.539,-4.7094 -1.6943,0.4902 -3.3076,2.3388 -3.3076,2.3388 z M 39.5645,33.4561 c 0,0 -10.7651,4.0351 -3.1206,15.8554 0,0 0.6811,0.1978 0.1997,-0.4775 -0.4814,-0.6743 -0.4814,-0.6743 -0.4814,-0.6743 l -0.9668,-1.7578 c 0,0 -0.3496,-1.1519 0.4721,-0.4116 0.8218,0.7392 0.8218,0.7392 0.8218,0.7392 l 1.1641,1.0767 c 0,0 0.873,-1.1626 -2.0117,-4.7373 0,0 -0.6197,-0.9458 0.2641,-0.8853 0,0 0.3408,0.1328 0.7534,0.6729 0.4121,0.5395 0.4121,0.5395 0.4121,0.5395 0,0 0.7994,0.9336 0.75,0.333 0,0 0.2593,-1.4292 -2.2036,-3.3769 0,0 -0.7602,-1.42 0.1958,-0.8853 0,0 1.0943,0.874 1.5088,1.6172 0,0 1.231,0.8721 0.6748,-0.5488 l -1.3808,-2.5015 c 0,0 -0.4151,-0.8799 -0.0098,-1.1553 0,0 0.606,-0.5488 0.9546,0.4673 0,0 0.4878,1.3545 0.6919,1.353 0,0 0.3428,0.4043 0.2637,-0.8178 0,0 0.1083,-3.126 1.0507,-4.0855 0,0 0.6768,-0.3462 -0.0029,-0.3393 z m -1.9468,-5.0772 2.1885,1.6109 c 0,0 -0.0112,-1.2227 -1.9307,-3.1753 0,0 -0.4101,-0.3369 -0.2671,0.4775 0,0 0.2774,0.6763 0.0093,1.0869 z m -1.0254,-0.7383 c 0,0 0.5708,-4.6245 -2.5044,-6.6357 0,0 -0.1337,0.2051 0.2105,0.7456 0,0 1.376,1.958 1.2573,3.8608 0,0 -0.4678,0.8877 -0.8115,0.4151 0,0 0.1084,-3.0576 -1.3926,-3.7915 0,0 -0.8144,0.0068 -0.3818,2.9238 0,0 0.0947,0.3599 0.5493,0.6065 0.8291,0.4506 0.8188,0.4682 0.8188,0.4682 z m -18.184,2.4024 c 0,0 3.747,-6.4873 6.873,-6.3106 0,0 2.2388,-0.292 6.5327,1.3013 0,0 0.3413,0.2002 0.2617,-1.1577 0,0 0.4405,-3.9434 -2.2231,-5.6187 0,0 0.5737,3.459 -1.791,4.9747 0,0 -1.0811,0.621 -1.0249,-0.6705 l 0.1235,-1.4272 c 0,0 0.2085,-1.27 -2.3384,-3.3081 0,0 -0.435,-0.3438 -0.4746,0.1396 0,0 -0.2549,1.9048 0.4346,3.0533 0,0 1.0727,1.7212 0.0161,1.8349 0,0 -0.4727,0.3433 -1.2344,-1.3476 0,0 -0.9077,-2.7779 -4.1626,-2.0699 0,0 -0.4829,0.2061 0.2783,0.6768 0,0 0.8658,0.4824 1.1001,1.4854 0,0 0.4185,1.3603 1.9151,1.5454 0,0 0.7519,0.5366 0.0039,0.4077 0,0 -3.1338,-0.9917 -6.1865,-0.5572 0,0 -0.6109,0.0738 0.0024,0.2715 0.6128,0.1988 0.6128,0.1988 0.6128,0.1988 l 1.5005,0.666 c 0,0 -4.2554,2.7549 -3.6895,5.2627 0,0 0.544,0.0634 1.2173,-0.6211 0.6729,-0.6861 0.6729,-0.6861 0.6729,-0.6861 l 2.8305,-2.538 0.2071,0.3378 c 0,0 -2.2183,2.6685 -1.7285,4.2271 z m 18.7734,2.8232 c 0,0 -0.4761,-0.1318 -0.9448,0.687 l -0.2012,0.2735 c 0,0 1.0137,-0.5523 1.146,-0.9605 z m -5.3125,6.0923 c 0.6025,-1.0244 0.2534,-2.0405 0.2534,-2.0405 -0.8711,1.3672 -0.2534,2.0405 -0.2534,2.0405 z m 0.2812,8.7612 c 0.6661,-1.5009 1.48,-1.6435 1.48,-1.6435 0.1099,-2.9224 -0.8413,-2.9819 -0.8413,-2.9819 -1.2729,2.0488 -0.6387,4.6254 -0.6387,4.6254 z m -2.8999,-5.2734 0.086,1.9692 c 0,0 1.2778,-1.4375 -0.086,-1.9692 z m 2.709,-0.9072 c 1.7617,-0.5586 1.1387,-1.9121 1.1387,-1.9121 -1.3569,0.2163 -1.1387,1.9121 -1.1387,1.9121 z m 1.9732,-7.4224 1.8125,-2.3926 c 0,0 0.6738,-0.6176 -1.0225,-0.3989 0,0 -2.1963,-2.5625 -3.6919,-2.6846 0,0 -0.1328,0.3409 0.1441,0.9493 0,0 0.768,2.3711 0.3623,2.5786 -0.4058,0.207 -0.4058,0.207 -0.4058,0.207 0,0 -2.5347,-2.4907 -4.3687,-2.4067 0,0 0.419,1.2871 1.9239,2.4287 0,0 1.3008,1.143 0.6264,1.6924 0,0 -0.3369,0.3432 -1.2265,-0.3965 0,0 -1.9864,-1.8843 -4.9737,-1.6543 0,0 3.4107,1.6001 4.169,2.8843 0,0 0.2798,0.8803 -0.6055,0.6171 0,0 -4.6382,-2.1333 -6.3882,-0.2841 0,0 3.9493,0.9843 4.6436,2.7446 0,0 0.0058,0.6792 -1.2861,0.5552 0,0 -4.6275,-0.979 -6.2173,3.5869 0,0 -0.1812,0.6709 0.5454,0.269 l 0.6772,-0.2798 c 0,0 1.1343,-0.1899 1.9634,-0.7651 0,0 1.353,-0.6226 1.4941,-0.0127 0,0 0.084,0.3887 -0.3344,0.5464 0,0 -2.1582,0.8921 -2.145,3.3472 l 0.021,2.31 c 0,0 0.2114,0.8809 0.6811,0.1973 0,0 2.2148,-3.0083 2.2671,-4.7744 l -0.0068,-0.7476 c 0,0 0.8134,-0.2109 0.7514,0.4693 l -0.0561,1.2905 c 0,0 -0.0537,1.5112 2.0659,3.1748 0,0 0.686,0.7412 0.6094,-0.2095 -0.0762,-0.9507 -0.0762,-0.9507 -0.0762,-0.9507 0,0 -0.2588,-2.0439 -0.9775,-2.9795 0,0 -0.7032,-2.7109 0.517,-2.9936 0,0 1.1748,2.2988 2.3321,2.561 0,0 0.8857,0.2627 -0.3155,-4.957 0,0 -0.1474,-1.3565 0.2588,-1.4282 0,0 0.7432,-0.4825 0.9595,0.9419 0,0 -0.0522,1.7671 1.1763,2.3676 0,0 1.081,-0.6211 1.0605,-2.9301 0,0 0.1758,-3.1949 1.6621,-4.0909 0,0 0.6763,-0.414 0.7486,0.1289 0,0 0.0879,2.2417 0.625,1.4888 z m 3.2744,-13.8179 c 0,0 -3.8042,-7.643 -11.2154,-8.4604 0,0 -0.5429,0.0728 0.6143,0.334 0,0 5.9902,1.4419 10.1245,7.9946 0,0 0.3467,0.812 0.4766,0.1318 z m -3.4746,-1.1245 c 0,0 0,0 0.8906,0.875 0.8906,0.8755 0.8862,0.3326 0.8862,0.3326 l -2.1255,-2.2237 c -0.4043,0.4112 0.3487,1.0161 0.3487,1.0161 z m -13.9893,-7.145 c -1.2168,0.69 -0.2627,1.021 -0.2627,1.021 l 2.2305,-1.31 c -0.4776,-0.1998 -1.9678,0.289 -1.9678,0.289 z m 19.5127,9.5415 c 0,0 0.5845,-3.0615 -0.1787,-4.8218 0,0 -0.2769,-0.6084 -0.606,0.6172 0,0 -0.7968,1.9771 0.3101,4.2764 0,0 0.2808,1.0166 0.4746,-0.0718 z m -3.4536,-6.4902 c -0.6001,1.3633 0.084,1.9009 0.084,1.9009 0.4126,0.4721 1.1679,1.416 1.1679,1.416 0.8853,0.2641 0.2491,-2.583 0.2491,-2.583 -0.3491,-1.0161 -0.4283,-2.3062 -0.4283,-2.3062 -0.2104,-0.7451 -1.0727,1.5723 -1.0727,1.5723 z m -2.25,-0.9317 1.0288,1.1456 c 0,0 0.4824,0.7431 0.6689,-1.1607 0,0 0.7198,-3.1313 -0.1748,-4.4131 0,0 -1.2119,1.2329 -1.267,2.6597 0,0 0.0102,1.1548 -0.2559,1.7685 z m -1.231,-0.9399 c 0,0 1.8204,-1.5791 0.5049,-4.3525 L 32.1319,7.1651 c 0,0 -0.5508,-0.8111 -0.7442,0.3461 0,0 -0.2265,1.3829 -0.25,2.5152 0,0 0.0191,2.8559 1.1836,3.1826 z m -1.9814,-1.2056 c 0,0 0.5815,-3.4013 -1.8731,-4.4663 0,0 -0.6831,-0.4023 -0.4052,0.2071 0,0 0.4829,0.8789 0.4214,1.5586 0,0 0.6362,2.8476 1.8569,2.7006 z m -2.1807,-0.8637 c 0,0 0.104,-3.6016 -3.2251,-3.6397 0,0 -0.2695,0.2056 0.0074,0.815 0,0 0.9765,2.8447 2.7446,3.101 0,0 0.4184,0.1114 0.4731,-0.2763 z m -3.8105,-0.7139 c 0,0 -0.7588,-1.2832 -2.4536,-0.9287 0,0 -0.2701,0.206 0.0039,0.4756 0,0 0.6108,0.5771 1.8403,0.6621 0,0 0.7852,0.0556 0.6094,-0.209 z"
         transform="translate(58.4804,1.4394)"
         id="path4464-6"
         inkscape:connector-curvature="0" />
      <path
         style="fill:#ac5341;fill-rule:nonzero;stroke:none"
         d="m 2.4888,50.4238 c 0,0 0,0 -0.7476,0.0068 -0.747,0.0064 -0.6748,0.4815 -0.6748,0.4815 l 0.0074,0.8823 c 0.3471,0.8125 0.0117,1.2905 0.0117,1.2905 0,0 0,0 0.0122,1.4268 0.0127,1.4268 0.2851,1.4917 0.2851,1.4917 l 0.6177,0.6743 c 0,0 0.0122,-0.0127 0.7539,0.7407 0.5747,0.5835 0.7495,0.2647 0.7495,0.2647 0.5371,-0.6836 0.251,-2.3115 0.251,-2.3115 -0.1421,-0.7461 -0.0288,-3.2603 -0.0288,-3.2603 0,0 0,0 -0.0073,-0.8149 C 3.7119,50.4809 2.9649,50.4878 2.9649,50.4878 Z m 0.5366,-0.7519 c 0,0 0.7788,-0.211 0.6016,-1.0923 -0.0733,-0.6109 -0.0733,-0.6109 -0.0733,-0.6109 0,0 -0.0927,-2.852 0.0386,-3.3286 0,0 0.1597,-1.1904 -0.6899,-1.2168 l -1.0191,0.0093 c 0,0 -0.8183,-0.3325 -0.8081,0.7539 0,0 -0.0283,0.6792 -0.0586,1.1558 0,0 -0.1967,0.749 -0.0449,2.5132 0,0 -0.1206,1.7675 0.5591,1.7617 0,0 1.0864,0.0244 1.4946,0.0547 z M 1.0459,38.5273 c -0.1303,0.4951 -0.0674,2.4673 -0.0674,2.4673 0,0 0,0 -0.0615,0.7476 -0.061,0.7485 0.4126,0.5405 0.4126,0.5405 0.4063,-0.1401 0.6123,0.1304 0.6123,0.1304 1.1577,0.2612 1.2891,-0.2159 1.2891,-0.2159 0.6006,-1.228 0.043,-2.853 0.043,-2.853 -0.1431,-0.8139 -0.0835,-1.7656 -0.0835,-1.7656 0,0 -0.0318,0.1655 0.0302,-0.374 C 3.252,36.9326 2.8784,36.8681 2.8784,36.8681 2.7046,36.9966 2.437,36.8374 2.437,36.8374 2.1641,36.772 1.8252,36.8432 1.8252,36.8432 0.7027,36.6836 1.0459,38.5273 1.0459,38.5273 Z m -0.2983,-8.3315 0.0781,1.1543 c -0.06,0.917 -0.1118,2.7182 -0.1118,2.7182 -0.0513,1.9024 1.1035,1.8921 1.1035,1.8921 L 2.7681,35.9516 C 3.4473,35.9458 3.2915,33.7055 3.2915,33.7055 3.148,32.8237 3.128,30.5146 3.128,30.5146 2.7178,30.1782 0.7476,30.1958 0.7476,30.1958 Z m 0.2158,-6.3194 c -0.8164,-0.1289 -0.4707,0.5469 -0.4707,0.5469 0,0 0.0127,0.1201 0.0396,0.6797 0.042,0.8491 0.0542,2.2412 0.0542,2.2412 -0.2242,2.4756 1.4462,2.229 1.4462,2.229 C 3.3233,29.562 3.1763,28.3398 3.1763,28.3398 2.9615,27.0517 3.1475,25.0796 3.1475,25.0796 3.2119,24.6714 3.2764,24.2641 3.2764,24.2641 2.9326,23.2832 1.8457,23.8008 1.8457,23.8008 Z M 1.4317,15.3808 C 1.2285,15.4507 0.6836,15.2519 0.6836,15.2519 0.3775,15.2202 0.42,16.2051 0.42,16.2051 l 0.0371,4.2109 c 0,0 0,0 0.082,1.5615 0.0815,1.562 1.6387,0.937 1.6387,0.937 0.4746,-0.0722 0.7378,-1.0254 0.7378,-1.0254 L 2.7964,16.0483 C 2.856,15.0962 1.4317,15.3808 1.4317,15.3808 Z M 1.7085,8.2456 C 1.2334,8.2837 0.9619,8.3198 0.9619,8.3198 0.1094,7.9883 0.2964,9.8203 0.2964,9.8203 c 0.1392,0.4746 -0.0473,2.3784 -0.0473,2.3784 -0.1866,1.9717 0.6977,2.0996 0.6977,2.0996 0.5767,-0.039 0.8164,0.1284 0.8164,0.1284 1.0889,0.2622 0.9439,-0.7553 0.9439,-0.7553 L 2.6704,9.4595 C 2.7915,7.8291 1.7085,8.2456 1.7085,8.2456 Z M 2.1817,0.2939 C 1.7071,0.3999 1.3662,0.2671 1.3662,0.2671 0.7867,0 0.6201,0.3755 0.6201,0.3755 0.7168,1.293 0.5689,2.2773 0.5689,2.2773 0.7183,3.8388 0.3907,5.2002 0.3907,5.2002 0,7.1059 1.085,6.8921 1.085,6.8921 L 1.3228,6.8569 1.7652,6.9888 C 2.7852,7.1152 2.5034,5.9966 2.5034,5.9966 2.2876,4.5727 2.5967,1.1055 2.5967,1.1055 2.8184,0.1743 2.1817,0.2939 2.1817,0.2939 Z M 14.334,7.3193 13.7217,7.1211 c -0.8154,0.0073 -0.1269,1.0874 -0.1269,1.0874 l 0.8281,1.4194 1.1474,-0.8252 C 15.2295,8.7378 14.334,7.3193 14.334,7.3193 Z m -1.1748,5.377 c -0.6748,0.6167 0.0127,1.562 0.0127,1.562 0,0 0,0 0.4131,0.4717 0.4111,0.4716 1.2236,0.1928 1.2236,0.1928 0.8106,-0.5507 -0.2138,-1.1528 -0.2138,-1.1528 -0.2032,0.002 -0.8907,-0.875 -0.8907,-0.875 z m 0.8623,-2.3174 c -0.542,0.0723 -0.0547,1.4267 -0.0547,1.4267 l 0.5489,0.6744 c 0,0 0,0 0.5468,0.4028 0.5469,0.4023 0.6807,0.0625 0.6807,0.0625 -0.0713,-0.2715 0.333,-0.6148 0.333,-0.6148 C 16.4815,11.9194 16,11.4482 16,11.4482 l -0.958,-0.9428 c -0.6826,-0.3331 -1.0205,-0.1265 -1.0205,-0.1265 z m -2.5176,-0.522 c 0,0 1.2266,0.397 1.5625,-0.0132 0,0 -0.0029,-2.3442 -1.5781,-1.6841 -0.3974,0.1661 -0.668,1.2281 0.0156,1.6973 z m 0.3301,6.5864 c 0,0 0,0 0.2754,0.4053 0.2744,0.4058 0.4834,0.9473 0.4834,0.9473 l 0.4795,0.4712 c 0.6143,0.334 1.0156,-0.4165 1.0156,-0.4165 C 14.8887,16.2812 12.4356,15.352 12.4356,15.352 11.21,15.1587 11.834,16.4433 11.834,16.4433 Z M 9.7256,16.1225 c -0.1328,0.4776 0.2764,0.6768 0.2764,0.6768 -0.2656,0.6138 0.6221,1.1504 0.6221,1.1504 0.8847,0.1953 0.8769,-0.6875 0.8769,-0.6875 -0.2891,-1.9678 -1.2402,-2.0269 -1.2402,-2.0269 -0.3399,-0.0654 -0.5352,0.8872 -0.5352,0.8872 z M 7.168,11.1186 c -0.3584,1.0132 0.2852,1.4239 0.2852,1.4239 L 8.4639,11.6504 C 9.3409,11.0996 9.0635,10.2866 9.0635,10.2866 8.8535,9.6772 8.3116,9.8857 8.3116,9.8857 7.2295,10.3711 7.168,11.1186 7.168,11.1186 Z m 3.6094,1.1231 c -0.7373,1.0932 0.3564,1.9663 0.3564,1.9663 0.6113,-0.0049 0.6709,-1.0244 0.6709,-1.0244 0.0176,-0.3101 0.0625,-0.6128 0.0625,-0.6128 0.3311,-0.8848 -0.416,-0.9468 -0.416,-0.9468 -0.4766,-0.1313 -0.6738,0.6177 -0.6738,0.6177 z m -3.2403,2.2021 c 0.2823,1.1519 1.3643,0.5992 1.3643,0.5992 0.5586,-0.1949 0.3994,-0.8189 0.3994,-0.8189 0.9463,-0.4839 0.2598,-1.293 0.2598,-1.293 -0.3252,-0.686 -1.2217,0.0786 -1.2217,0.0786 -0.6064,0.4131 -0.8018,1.4341 -0.8018,1.4341 z M 12.5625,6.5874 C 13.17,6.3105 12.5567,5.9761 12.5567,5.9761 12.0137,6.1167 11.7393,5.6435 11.7393,5.6435 11.1895,5.105 10.9922,5.7182 10.9922,5.7182 c -0.1933,1.292 1.5703,0.8692 1.5703,0.8692 z M 8.0264,8.2583 C 8.0323,8.937 8.9737,7.9101 8.9737,7.9101 8.9698,7.5024 9.4414,7.0908 9.4414,7.0908 9.2344,6.7529 9.0323,6.8222 9.0323,6.8222 7.9532,6.7759 8.0264,8.2583 8.0264,8.2583 Z m 2.1182,1.6108 c 0.8252,-0.0576 0.3759,-1.833 -0.084,-1.833 -0.461,0 -1.1446,1.919 0.084,1.833 z m -0.7344,1.9224 c 0.1396,0.4175 1.6074,-0.4736 1.3896,-1.0117 -0.2177,-0.5381 -1.5283,0.5942 -1.3896,1.0117 z"
         transform="translate(99.4853,60.1118)"
         id="path4466-1"
         inkscape:connector-curvature="0" />
    </g>
  </g>
</svg>
